G04 #@! TF.FileFunction,Legend,Top*
%FSLAX46Y46*%
G04 Gerber Fmt 4.6, Leading zero omitted, Abs format (unit mm)*
G04 Created by KiCad (PCBNEW 4.0.7) date 03/10/21 14:30:36*
%MOMM*%
%LPD*%
G01*
G04 APERTURE LIST*
%ADD10C,0.100000*%
%ADD11C,0.300000*%
%ADD12C,0.500000*%
%ADD13C,0.120000*%
%ADD14C,0.127000*%
%ADD15C,0.400000*%
%ADD16C,0.150000*%
G04 APERTURE END LIST*
D10*
D11*
X143925751Y-46552821D02*
X143211465Y-46552821D01*
X143211465Y-45052821D01*
X144425751Y-46552821D02*
X144425751Y-45552821D01*
X144425751Y-45052821D02*
X144354322Y-45124250D01*
X144425751Y-45195679D01*
X144497179Y-45124250D01*
X144425751Y-45052821D01*
X144425751Y-45195679D01*
X145782894Y-46481393D02*
X145640037Y-46552821D01*
X145354323Y-46552821D01*
X145211465Y-46481393D01*
X145140037Y-46409964D01*
X145068608Y-46267107D01*
X145068608Y-45838536D01*
X145140037Y-45695679D01*
X145211465Y-45624250D01*
X145354323Y-45552821D01*
X145640037Y-45552821D01*
X145782894Y-45624250D01*
X146997179Y-46481393D02*
X146854322Y-46552821D01*
X146568608Y-46552821D01*
X146425751Y-46481393D01*
X146354322Y-46338536D01*
X146354322Y-45767107D01*
X146425751Y-45624250D01*
X146568608Y-45552821D01*
X146854322Y-45552821D01*
X146997179Y-45624250D01*
X147068608Y-45767107D01*
X147068608Y-45909964D01*
X146354322Y-46052821D01*
X147711465Y-45552821D02*
X147711465Y-46552821D01*
X147711465Y-45695679D02*
X147782893Y-45624250D01*
X147925751Y-45552821D01*
X148140036Y-45552821D01*
X148282893Y-45624250D01*
X148354322Y-45767107D01*
X148354322Y-46552821D01*
X148997179Y-46481393D02*
X149140036Y-46552821D01*
X149425751Y-46552821D01*
X149568608Y-46481393D01*
X149640036Y-46338536D01*
X149640036Y-46267107D01*
X149568608Y-46124250D01*
X149425751Y-46052821D01*
X149211465Y-46052821D01*
X149068608Y-45981393D01*
X148997179Y-45838536D01*
X148997179Y-45767107D01*
X149068608Y-45624250D01*
X149211465Y-45552821D01*
X149425751Y-45552821D01*
X149568608Y-45624250D01*
X150854322Y-46481393D02*
X150711465Y-46552821D01*
X150425751Y-46552821D01*
X150282894Y-46481393D01*
X150211465Y-46338536D01*
X150211465Y-45767107D01*
X150282894Y-45624250D01*
X150425751Y-45552821D01*
X150711465Y-45552821D01*
X150854322Y-45624250D01*
X150925751Y-45767107D01*
X150925751Y-45909964D01*
X150211465Y-46052821D01*
X152211465Y-46552821D02*
X152211465Y-45052821D01*
X152211465Y-46481393D02*
X152068608Y-46552821D01*
X151782894Y-46552821D01*
X151640036Y-46481393D01*
X151568608Y-46409964D01*
X151497179Y-46267107D01*
X151497179Y-45838536D01*
X151568608Y-45695679D01*
X151640036Y-45624250D01*
X151782894Y-45552821D01*
X152068608Y-45552821D01*
X152211465Y-45624250D01*
X154711465Y-45552821D02*
X154711465Y-46552821D01*
X154068608Y-45552821D02*
X154068608Y-46338536D01*
X154140036Y-46481393D01*
X154282894Y-46552821D01*
X154497179Y-46552821D01*
X154640036Y-46481393D01*
X154711465Y-46409964D01*
X155425751Y-45552821D02*
X155425751Y-46552821D01*
X155425751Y-45695679D02*
X155497179Y-45624250D01*
X155640037Y-45552821D01*
X155854322Y-45552821D01*
X155997179Y-45624250D01*
X156068608Y-45767107D01*
X156068608Y-46552821D01*
X157425751Y-46552821D02*
X157425751Y-45052821D01*
X157425751Y-46481393D02*
X157282894Y-46552821D01*
X156997180Y-46552821D01*
X156854322Y-46481393D01*
X156782894Y-46409964D01*
X156711465Y-46267107D01*
X156711465Y-45838536D01*
X156782894Y-45695679D01*
X156854322Y-45624250D01*
X156997180Y-45552821D01*
X157282894Y-45552821D01*
X157425751Y-45624250D01*
X158711465Y-46481393D02*
X158568608Y-46552821D01*
X158282894Y-46552821D01*
X158140037Y-46481393D01*
X158068608Y-46338536D01*
X158068608Y-45767107D01*
X158140037Y-45624250D01*
X158282894Y-45552821D01*
X158568608Y-45552821D01*
X158711465Y-45624250D01*
X158782894Y-45767107D01*
X158782894Y-45909964D01*
X158068608Y-46052821D01*
X159425751Y-46552821D02*
X159425751Y-45552821D01*
X159425751Y-45838536D02*
X159497179Y-45695679D01*
X159568608Y-45624250D01*
X159711465Y-45552821D01*
X159854322Y-45552821D01*
X143640036Y-48959964D02*
X143568607Y-49031393D01*
X143354321Y-49102821D01*
X143211464Y-49102821D01*
X142997179Y-49031393D01*
X142854321Y-48888536D01*
X142782893Y-48745679D01*
X142711464Y-48459964D01*
X142711464Y-48245679D01*
X142782893Y-47959964D01*
X142854321Y-47817107D01*
X142997179Y-47674250D01*
X143211464Y-47602821D01*
X143354321Y-47602821D01*
X143568607Y-47674250D01*
X143640036Y-47745679D01*
X144282893Y-48317107D02*
X144782893Y-48317107D01*
X144997179Y-49102821D02*
X144282893Y-49102821D01*
X144282893Y-47602821D01*
X144997179Y-47602821D01*
X146497179Y-49102821D02*
X145997179Y-48388536D01*
X145640036Y-49102821D02*
X145640036Y-47602821D01*
X146211464Y-47602821D01*
X146354322Y-47674250D01*
X146425750Y-47745679D01*
X146497179Y-47888536D01*
X146497179Y-48102821D01*
X146425750Y-48245679D01*
X146354322Y-48317107D01*
X146211464Y-48388536D01*
X145640036Y-48388536D01*
X147140036Y-49102821D02*
X147140036Y-47602821D01*
X147997179Y-49102821D01*
X147997179Y-47602821D01*
X150140036Y-47602821D02*
X150425750Y-47602821D01*
X150568608Y-47674250D01*
X150711465Y-47817107D01*
X150782893Y-48102821D01*
X150782893Y-48602821D01*
X150711465Y-48888536D01*
X150568608Y-49031393D01*
X150425750Y-49102821D01*
X150140036Y-49102821D01*
X149997179Y-49031393D01*
X149854322Y-48888536D01*
X149782893Y-48602821D01*
X149782893Y-48102821D01*
X149854322Y-47817107D01*
X149997179Y-47674250D01*
X150140036Y-47602821D01*
X151425751Y-49102821D02*
X151425751Y-47602821D01*
X151425751Y-48317107D02*
X152282894Y-48317107D01*
X152282894Y-49102821D02*
X152282894Y-47602821D01*
X153711466Y-49102821D02*
X152997180Y-49102821D01*
X152997180Y-47602821D01*
X155211466Y-48102821D02*
X155568609Y-49102821D01*
X155925751Y-48102821D01*
X156497180Y-48959964D02*
X156568608Y-49031393D01*
X156497180Y-49102821D01*
X156425751Y-49031393D01*
X156497180Y-48959964D01*
X156497180Y-49102821D01*
X157997180Y-49102821D02*
X157140037Y-49102821D01*
X157568609Y-49102821D02*
X157568609Y-47602821D01*
X157425752Y-47817107D01*
X157282894Y-47959964D01*
X157140037Y-48031393D01*
X158640037Y-48959964D02*
X158711465Y-49031393D01*
X158640037Y-49102821D01*
X158568608Y-49031393D01*
X158640037Y-48959964D01*
X158640037Y-49102821D01*
X159282894Y-47745679D02*
X159354323Y-47674250D01*
X159497180Y-47602821D01*
X159854323Y-47602821D01*
X159997180Y-47674250D01*
X160068609Y-47745679D01*
X160140037Y-47888536D01*
X160140037Y-48031393D01*
X160068609Y-48245679D01*
X159211466Y-49102821D01*
X160140037Y-49102821D01*
D12*
X81345393Y-45506393D02*
X83059679Y-45506393D01*
X81827536Y-48506393D02*
X82202536Y-45506393D01*
X83684679Y-48506393D02*
X83934679Y-46506393D01*
X84059679Y-45506393D02*
X83898965Y-45649250D01*
X84023965Y-45792107D01*
X84184679Y-45649250D01*
X84059679Y-45506393D01*
X84023965Y-45792107D01*
X85363250Y-46506393D02*
X85113250Y-48506393D01*
X85327536Y-46792107D02*
X85488250Y-46649250D01*
X85791821Y-46506393D01*
X86220393Y-46506393D01*
X86488250Y-46649250D01*
X86595393Y-46934964D01*
X86398964Y-48506393D01*
X87791821Y-46506393D02*
X88256107Y-48506393D01*
X89220393Y-46506393D02*
X88256107Y-48506393D01*
X87881107Y-49220679D01*
X87720393Y-49363536D01*
X87416821Y-49506393D01*
X90113250Y-48506393D02*
X90488250Y-45506393D01*
X91220393Y-47649250D01*
X92488250Y-45506393D01*
X92113250Y-48506393D01*
X93970392Y-48506393D02*
X93702535Y-48363536D01*
X93577535Y-48220679D01*
X93470393Y-47934964D01*
X93577536Y-47077821D01*
X93756107Y-46792107D01*
X93916821Y-46649250D01*
X94220392Y-46506393D01*
X94648964Y-46506393D01*
X94916821Y-46649250D01*
X95041821Y-46792107D01*
X95148964Y-47077821D01*
X95041821Y-47934964D01*
X94863249Y-48220679D01*
X94702535Y-48363536D01*
X94398964Y-48506393D01*
X93970392Y-48506393D01*
X97541821Y-48506393D02*
X97916821Y-45506393D01*
X97559678Y-48363536D02*
X97256107Y-48506393D01*
X96684678Y-48506393D01*
X96416821Y-48363536D01*
X96291821Y-48220679D01*
X96184679Y-47934964D01*
X96291822Y-47077821D01*
X96470393Y-46792107D01*
X96631107Y-46649250D01*
X96934678Y-46506393D01*
X97506107Y-46506393D01*
X97773964Y-46649250D01*
X101131107Y-48363536D02*
X101541821Y-48506393D01*
X102256107Y-48506393D01*
X102559678Y-48363536D01*
X102720392Y-48220679D01*
X102898964Y-47934964D01*
X102934678Y-47649250D01*
X102827535Y-47363536D01*
X102702535Y-47220679D01*
X102434679Y-47077821D01*
X101881107Y-46934964D01*
X101613250Y-46792107D01*
X101488250Y-46649250D01*
X101381107Y-46363536D01*
X101416822Y-46077821D01*
X101595393Y-45792107D01*
X101756107Y-45649250D01*
X102059678Y-45506393D01*
X102773964Y-45506393D01*
X103184678Y-45649250D01*
X104363250Y-46506393D02*
X103988250Y-49506393D01*
X104345393Y-46649250D02*
X104648964Y-46506393D01*
X105220393Y-46506393D01*
X105488250Y-46649250D01*
X105613250Y-46792107D01*
X105720393Y-47077821D01*
X105613250Y-47934964D01*
X105434678Y-48220679D01*
X105273964Y-48363536D01*
X104970393Y-48506393D01*
X104398964Y-48506393D01*
X104131107Y-48363536D01*
X107256107Y-48506393D02*
X106988250Y-48363536D01*
X106881108Y-48077821D01*
X107202536Y-45506393D01*
X108398965Y-48506393D02*
X108648965Y-46506393D01*
X108773965Y-45506393D02*
X108613251Y-45649250D01*
X108738251Y-45792107D01*
X108898965Y-45649250D01*
X108773965Y-45506393D01*
X108738251Y-45792107D01*
X109648964Y-46506393D02*
X110791821Y-46506393D01*
X110202536Y-45506393D02*
X109881108Y-48077821D01*
X109988250Y-48363536D01*
X110256107Y-48506393D01*
X110541821Y-48506393D01*
D13*
X60706000Y-100076000D02*
X74676000Y-100076000D01*
X74676000Y-100076000D02*
X74676000Y-114046000D01*
X74676000Y-114046000D02*
X60706000Y-114046000D01*
X60706000Y-114046000D02*
X60706000Y-100076000D01*
X79756000Y-100076000D02*
X93726000Y-100076000D01*
X93726000Y-100076000D02*
X93726000Y-114046000D01*
X93726000Y-114046000D02*
X79756000Y-114046000D01*
X79756000Y-114046000D02*
X79756000Y-100076000D01*
X60772040Y-55651400D02*
X74742040Y-55651400D01*
X74742040Y-55651400D02*
X74742040Y-69621400D01*
X74742040Y-69621400D02*
X60772040Y-69621400D01*
X60772040Y-69621400D02*
X60772040Y-55651400D01*
X60746640Y-74706480D02*
X74716640Y-74706480D01*
X74716640Y-74706480D02*
X74716640Y-88676480D01*
X74716640Y-88676480D02*
X60746640Y-88676480D01*
X60746640Y-88676480D02*
X60746640Y-74706480D01*
X98806000Y-100076000D02*
X112776000Y-100076000D01*
X112776000Y-100076000D02*
X112776000Y-114046000D01*
X112776000Y-114046000D02*
X98806000Y-114046000D01*
X98806000Y-114046000D02*
X98806000Y-100076000D01*
X79838250Y-55650500D02*
X93808250Y-55650500D01*
X93808250Y-55650500D02*
X93808250Y-69620500D01*
X93808250Y-69620500D02*
X79838250Y-69620500D01*
X79838250Y-69620500D02*
X79838250Y-55650500D01*
X79838250Y-74681750D02*
X93808250Y-74681750D01*
X93808250Y-74681750D02*
X93808250Y-88651750D01*
X93808250Y-88651750D02*
X79838250Y-88651750D01*
X79838250Y-88651750D02*
X79838250Y-74681750D01*
X98869500Y-55650500D02*
X112839500Y-55650500D01*
X112839500Y-55650500D02*
X112839500Y-69620500D01*
X112839500Y-69620500D02*
X98869500Y-69620500D01*
X98869500Y-69620500D02*
X98869500Y-55650500D01*
X117900750Y-74681750D02*
X131870750Y-74681750D01*
X131870750Y-74681750D02*
X131870750Y-88651750D01*
X131870750Y-88651750D02*
X117900750Y-88651750D01*
X117900750Y-88651750D02*
X117900750Y-74681750D01*
X96505750Y-95365500D02*
G75*
G02X96505750Y-93365500I0J1000000D01*
G01*
X96505750Y-93365500D02*
X96505750Y-92115500D01*
X96505750Y-92115500D02*
X60825750Y-92115500D01*
X60825750Y-92115500D02*
X60825750Y-96615500D01*
X60825750Y-96615500D02*
X96505750Y-96615500D01*
X96505750Y-96615500D02*
X96505750Y-95365500D01*
X96565750Y-89115500D02*
X60765750Y-89115500D01*
X60765750Y-89115500D02*
X60765750Y-99615500D01*
X60765750Y-99615500D02*
X96565750Y-99615500D01*
X96565750Y-99615500D02*
X96565750Y-89115500D01*
X85879500Y-70320500D02*
X85879500Y-74040500D01*
X85879500Y-74040500D02*
X95899500Y-74040500D01*
X95899500Y-74040500D02*
X95899500Y-70320500D01*
X95899500Y-70320500D02*
X85879500Y-70320500D01*
X84649500Y-72180500D02*
X85879500Y-72180500D01*
X97129500Y-72180500D02*
X95899500Y-72180500D01*
X64598250Y-70320500D02*
X64598250Y-74040500D01*
X64598250Y-74040500D02*
X74618250Y-74040500D01*
X74618250Y-74040500D02*
X74618250Y-70320500D01*
X74618250Y-70320500D02*
X64598250Y-70320500D01*
X63368250Y-72180500D02*
X64598250Y-72180500D01*
X75848250Y-72180500D02*
X74618250Y-72180500D01*
D14*
X77000750Y-42505500D02*
X77000750Y-40805500D01*
X77000750Y-40805500D02*
X75300750Y-40805500D01*
X75300750Y-40805500D02*
X74550750Y-40805500D01*
X74550750Y-40805500D02*
X74550750Y-42105500D01*
X74550750Y-42105500D02*
X70050750Y-42105500D01*
X70050750Y-42105500D02*
X70050750Y-40805500D01*
X70050750Y-40805500D02*
X69300750Y-40805500D01*
X69300750Y-40805500D02*
X68000750Y-40805500D01*
X68000750Y-40805500D02*
X68000750Y-42555500D01*
X69300750Y-40805500D02*
X69300750Y-37805500D01*
X69300750Y-37805500D02*
X75300750Y-37805500D01*
X75300750Y-37805500D02*
X75300750Y-40805500D01*
X77000750Y-44905500D02*
X77000750Y-51805500D01*
X77000750Y-51805500D02*
X75000750Y-51805500D01*
X72650750Y-51805500D02*
X68000750Y-51805500D01*
X68000750Y-51805500D02*
X68000750Y-49705500D01*
X68000750Y-47805500D02*
X68000750Y-44755500D01*
D15*
X78000750Y-42305500D02*
G75*
G03X78000750Y-42305500I-200000J0D01*
G01*
D13*
X117900750Y-55650500D02*
X131870750Y-55650500D01*
X131870750Y-55650500D02*
X131870750Y-69620500D01*
X131870750Y-69620500D02*
X117900750Y-69620500D01*
X117900750Y-69620500D02*
X117900750Y-55650500D01*
X98869500Y-74681750D02*
X112839500Y-74681750D01*
X112839500Y-74681750D02*
X112839500Y-88651750D01*
X112839500Y-88651750D02*
X98869500Y-88651750D01*
X98869500Y-88651750D02*
X98869500Y-74681750D01*
X155963250Y-55650500D02*
X169933250Y-55650500D01*
X169933250Y-55650500D02*
X169933250Y-69620500D01*
X169933250Y-69620500D02*
X155963250Y-69620500D01*
X155963250Y-69620500D02*
X155963250Y-55650500D01*
X155963250Y-74681750D02*
X169933250Y-74681750D01*
X169933250Y-74681750D02*
X169933250Y-88651750D01*
X169933250Y-88651750D02*
X155963250Y-88651750D01*
X155963250Y-88651750D02*
X155963250Y-74681750D01*
X136932000Y-55650500D02*
X150902000Y-55650500D01*
X150902000Y-55650500D02*
X150902000Y-69620500D01*
X150902000Y-69620500D02*
X136932000Y-69620500D01*
X136932000Y-69620500D02*
X136932000Y-55650500D01*
X136932000Y-74681750D02*
X150902000Y-74681750D01*
X150902000Y-74681750D02*
X150902000Y-88651750D01*
X150902000Y-88651750D02*
X136932000Y-88651750D01*
X136932000Y-88651750D02*
X136932000Y-74681750D01*
D16*
X66357667Y-99591762D02*
X66500524Y-99639381D01*
X66738620Y-99639381D01*
X66833858Y-99591762D01*
X66881477Y-99544143D01*
X66929096Y-99448905D01*
X66929096Y-99353667D01*
X66881477Y-99258429D01*
X66833858Y-99210810D01*
X66738620Y-99163190D01*
X66548143Y-99115571D01*
X66452905Y-99067952D01*
X66405286Y-99020333D01*
X66357667Y-98925095D01*
X66357667Y-98829857D01*
X66405286Y-98734619D01*
X66452905Y-98687000D01*
X66548143Y-98639381D01*
X66786239Y-98639381D01*
X66929096Y-98687000D01*
X67262429Y-98639381D02*
X67500524Y-99639381D01*
X67691001Y-98925095D01*
X67881477Y-99639381D01*
X68119572Y-98639381D01*
X68405286Y-98639381D02*
X69024334Y-98639381D01*
X68691000Y-99020333D01*
X68833858Y-99020333D01*
X68929096Y-99067952D01*
X68976715Y-99115571D01*
X69024334Y-99210810D01*
X69024334Y-99448905D01*
X68976715Y-99544143D01*
X68929096Y-99591762D01*
X68833858Y-99639381D01*
X68548143Y-99639381D01*
X68452905Y-99591762D01*
X68405286Y-99544143D01*
X85407667Y-99591762D02*
X85550524Y-99639381D01*
X85788620Y-99639381D01*
X85883858Y-99591762D01*
X85931477Y-99544143D01*
X85979096Y-99448905D01*
X85979096Y-99353667D01*
X85931477Y-99258429D01*
X85883858Y-99210810D01*
X85788620Y-99163190D01*
X85598143Y-99115571D01*
X85502905Y-99067952D01*
X85455286Y-99020333D01*
X85407667Y-98925095D01*
X85407667Y-98829857D01*
X85455286Y-98734619D01*
X85502905Y-98687000D01*
X85598143Y-98639381D01*
X85836239Y-98639381D01*
X85979096Y-98687000D01*
X86312429Y-98639381D02*
X86550524Y-99639381D01*
X86741001Y-98925095D01*
X86931477Y-99639381D01*
X87169572Y-98639381D01*
X87979096Y-98639381D02*
X87788619Y-98639381D01*
X87693381Y-98687000D01*
X87645762Y-98734619D01*
X87550524Y-98877476D01*
X87502905Y-99067952D01*
X87502905Y-99448905D01*
X87550524Y-99544143D01*
X87598143Y-99591762D01*
X87693381Y-99639381D01*
X87883858Y-99639381D01*
X87979096Y-99591762D01*
X88026715Y-99544143D01*
X88074334Y-99448905D01*
X88074334Y-99210810D01*
X88026715Y-99115571D01*
X87979096Y-99067952D01*
X87883858Y-99020333D01*
X87693381Y-99020333D01*
X87598143Y-99067952D01*
X87550524Y-99115571D01*
X87502905Y-99210810D01*
X66423707Y-55167162D02*
X66566564Y-55214781D01*
X66804660Y-55214781D01*
X66899898Y-55167162D01*
X66947517Y-55119543D01*
X66995136Y-55024305D01*
X66995136Y-54929067D01*
X66947517Y-54833829D01*
X66899898Y-54786210D01*
X66804660Y-54738590D01*
X66614183Y-54690971D01*
X66518945Y-54643352D01*
X66471326Y-54595733D01*
X66423707Y-54500495D01*
X66423707Y-54405257D01*
X66471326Y-54310019D01*
X66518945Y-54262400D01*
X66614183Y-54214781D01*
X66852279Y-54214781D01*
X66995136Y-54262400D01*
X67328469Y-54214781D02*
X67566564Y-55214781D01*
X67757041Y-54500495D01*
X67947517Y-55214781D01*
X68185612Y-54214781D01*
X68471326Y-54214781D02*
X69137993Y-54214781D01*
X68709421Y-55214781D01*
X66398307Y-74222242D02*
X66541164Y-74269861D01*
X66779260Y-74269861D01*
X66874498Y-74222242D01*
X66922117Y-74174623D01*
X66969736Y-74079385D01*
X66969736Y-73984147D01*
X66922117Y-73888909D01*
X66874498Y-73841290D01*
X66779260Y-73793670D01*
X66588783Y-73746051D01*
X66493545Y-73698432D01*
X66445926Y-73650813D01*
X66398307Y-73555575D01*
X66398307Y-73460337D01*
X66445926Y-73365099D01*
X66493545Y-73317480D01*
X66588783Y-73269861D01*
X66826879Y-73269861D01*
X66969736Y-73317480D01*
X67303069Y-73269861D02*
X67541164Y-74269861D01*
X67731641Y-73555575D01*
X67922117Y-74269861D01*
X68160212Y-73269861D01*
X68684021Y-73698432D02*
X68588783Y-73650813D01*
X68541164Y-73603194D01*
X68493545Y-73507956D01*
X68493545Y-73460337D01*
X68541164Y-73365099D01*
X68588783Y-73317480D01*
X68684021Y-73269861D01*
X68874498Y-73269861D01*
X68969736Y-73317480D01*
X69017355Y-73365099D01*
X69064974Y-73460337D01*
X69064974Y-73507956D01*
X69017355Y-73603194D01*
X68969736Y-73650813D01*
X68874498Y-73698432D01*
X68684021Y-73698432D01*
X68588783Y-73746051D01*
X68541164Y-73793670D01*
X68493545Y-73888909D01*
X68493545Y-74079385D01*
X68541164Y-74174623D01*
X68588783Y-74222242D01*
X68684021Y-74269861D01*
X68874498Y-74269861D01*
X68969736Y-74222242D01*
X69017355Y-74174623D01*
X69064974Y-74079385D01*
X69064974Y-73888909D01*
X69017355Y-73793670D01*
X68969736Y-73746051D01*
X68874498Y-73698432D01*
X104457667Y-99591762D02*
X104600524Y-99639381D01*
X104838620Y-99639381D01*
X104933858Y-99591762D01*
X104981477Y-99544143D01*
X105029096Y-99448905D01*
X105029096Y-99353667D01*
X104981477Y-99258429D01*
X104933858Y-99210810D01*
X104838620Y-99163190D01*
X104648143Y-99115571D01*
X104552905Y-99067952D01*
X104505286Y-99020333D01*
X104457667Y-98925095D01*
X104457667Y-98829857D01*
X104505286Y-98734619D01*
X104552905Y-98687000D01*
X104648143Y-98639381D01*
X104886239Y-98639381D01*
X105029096Y-98687000D01*
X105362429Y-98639381D02*
X105600524Y-99639381D01*
X105791001Y-98925095D01*
X105981477Y-99639381D01*
X106219572Y-98639381D01*
X106648143Y-99639381D02*
X106838619Y-99639381D01*
X106933858Y-99591762D01*
X106981477Y-99544143D01*
X107076715Y-99401286D01*
X107124334Y-99210810D01*
X107124334Y-98829857D01*
X107076715Y-98734619D01*
X107029096Y-98687000D01*
X106933858Y-98639381D01*
X106743381Y-98639381D01*
X106648143Y-98687000D01*
X106600524Y-98734619D01*
X106552905Y-98829857D01*
X106552905Y-99067952D01*
X106600524Y-99163190D01*
X106648143Y-99210810D01*
X106743381Y-99258429D01*
X106933858Y-99258429D01*
X107029096Y-99210810D01*
X107076715Y-99163190D01*
X107124334Y-99067952D01*
X85013726Y-55166262D02*
X85156583Y-55213881D01*
X85394679Y-55213881D01*
X85489917Y-55166262D01*
X85537536Y-55118643D01*
X85585155Y-55023405D01*
X85585155Y-54928167D01*
X85537536Y-54832929D01*
X85489917Y-54785310D01*
X85394679Y-54737690D01*
X85204202Y-54690071D01*
X85108964Y-54642452D01*
X85061345Y-54594833D01*
X85013726Y-54499595D01*
X85013726Y-54404357D01*
X85061345Y-54309119D01*
X85108964Y-54261500D01*
X85204202Y-54213881D01*
X85442298Y-54213881D01*
X85585155Y-54261500D01*
X85918488Y-54213881D02*
X86156583Y-55213881D01*
X86347060Y-54499595D01*
X86537536Y-55213881D01*
X86775631Y-54213881D01*
X87680393Y-55213881D02*
X87108964Y-55213881D01*
X87394678Y-55213881D02*
X87394678Y-54213881D01*
X87299440Y-54356738D01*
X87204202Y-54451976D01*
X87108964Y-54499595D01*
X88299440Y-54213881D02*
X88394679Y-54213881D01*
X88489917Y-54261500D01*
X88537536Y-54309119D01*
X88585155Y-54404357D01*
X88632774Y-54594833D01*
X88632774Y-54832929D01*
X88585155Y-55023405D01*
X88537536Y-55118643D01*
X88489917Y-55166262D01*
X88394679Y-55213881D01*
X88299440Y-55213881D01*
X88204202Y-55166262D01*
X88156583Y-55118643D01*
X88108964Y-55023405D01*
X88061345Y-54832929D01*
X88061345Y-54594833D01*
X88108964Y-54404357D01*
X88156583Y-54309119D01*
X88204202Y-54261500D01*
X88299440Y-54213881D01*
X85013726Y-74197512D02*
X85156583Y-74245131D01*
X85394679Y-74245131D01*
X85489917Y-74197512D01*
X85537536Y-74149893D01*
X85585155Y-74054655D01*
X85585155Y-73959417D01*
X85537536Y-73864179D01*
X85489917Y-73816560D01*
X85394679Y-73768940D01*
X85204202Y-73721321D01*
X85108964Y-73673702D01*
X85061345Y-73626083D01*
X85013726Y-73530845D01*
X85013726Y-73435607D01*
X85061345Y-73340369D01*
X85108964Y-73292750D01*
X85204202Y-73245131D01*
X85442298Y-73245131D01*
X85585155Y-73292750D01*
X85918488Y-73245131D02*
X86156583Y-74245131D01*
X86347060Y-73530845D01*
X86537536Y-74245131D01*
X86775631Y-73245131D01*
X87680393Y-74245131D02*
X87108964Y-74245131D01*
X87394678Y-74245131D02*
X87394678Y-73245131D01*
X87299440Y-73387988D01*
X87204202Y-73483226D01*
X87108964Y-73530845D01*
X88632774Y-74245131D02*
X88061345Y-74245131D01*
X88347059Y-74245131D02*
X88347059Y-73245131D01*
X88251821Y-73387988D01*
X88156583Y-73483226D01*
X88061345Y-73530845D01*
X104044976Y-55166262D02*
X104187833Y-55213881D01*
X104425929Y-55213881D01*
X104521167Y-55166262D01*
X104568786Y-55118643D01*
X104616405Y-55023405D01*
X104616405Y-54928167D01*
X104568786Y-54832929D01*
X104521167Y-54785310D01*
X104425929Y-54737690D01*
X104235452Y-54690071D01*
X104140214Y-54642452D01*
X104092595Y-54594833D01*
X104044976Y-54499595D01*
X104044976Y-54404357D01*
X104092595Y-54309119D01*
X104140214Y-54261500D01*
X104235452Y-54213881D01*
X104473548Y-54213881D01*
X104616405Y-54261500D01*
X104949738Y-54213881D02*
X105187833Y-55213881D01*
X105378310Y-54499595D01*
X105568786Y-55213881D01*
X105806881Y-54213881D01*
X106711643Y-55213881D02*
X106140214Y-55213881D01*
X106425928Y-55213881D02*
X106425928Y-54213881D01*
X106330690Y-54356738D01*
X106235452Y-54451976D01*
X106140214Y-54499595D01*
X107044976Y-54213881D02*
X107664024Y-54213881D01*
X107330690Y-54594833D01*
X107473548Y-54594833D01*
X107568786Y-54642452D01*
X107616405Y-54690071D01*
X107664024Y-54785310D01*
X107664024Y-55023405D01*
X107616405Y-55118643D01*
X107568786Y-55166262D01*
X107473548Y-55213881D01*
X107187833Y-55213881D01*
X107092595Y-55166262D01*
X107044976Y-55118643D01*
X123076226Y-74197512D02*
X123219083Y-74245131D01*
X123457179Y-74245131D01*
X123552417Y-74197512D01*
X123600036Y-74149893D01*
X123647655Y-74054655D01*
X123647655Y-73959417D01*
X123600036Y-73864179D01*
X123552417Y-73816560D01*
X123457179Y-73768940D01*
X123266702Y-73721321D01*
X123171464Y-73673702D01*
X123123845Y-73626083D01*
X123076226Y-73530845D01*
X123076226Y-73435607D01*
X123123845Y-73340369D01*
X123171464Y-73292750D01*
X123266702Y-73245131D01*
X123504798Y-73245131D01*
X123647655Y-73292750D01*
X123980988Y-73245131D02*
X124219083Y-74245131D01*
X124409560Y-73530845D01*
X124600036Y-74245131D01*
X124838131Y-73245131D01*
X125742893Y-74245131D02*
X125171464Y-74245131D01*
X125457178Y-74245131D02*
X125457178Y-73245131D01*
X125361940Y-73387988D01*
X125266702Y-73483226D01*
X125171464Y-73530845D01*
X126600036Y-73578464D02*
X126600036Y-74245131D01*
X126361940Y-73197512D02*
X126123845Y-73911798D01*
X126742893Y-73911798D01*
X96958131Y-95127405D02*
X97767655Y-95127405D01*
X97862893Y-95079786D01*
X97910512Y-95032167D01*
X97958131Y-94936929D01*
X97958131Y-94746452D01*
X97910512Y-94651214D01*
X97862893Y-94603595D01*
X97767655Y-94555976D01*
X96958131Y-94555976D01*
X97958131Y-93555976D02*
X97958131Y-94127405D01*
X97958131Y-93841691D02*
X96958131Y-93841691D01*
X97100988Y-93936929D01*
X97196226Y-94032167D01*
X97243845Y-94127405D01*
X90722834Y-69772881D02*
X90389500Y-69296690D01*
X90151405Y-69772881D02*
X90151405Y-68772881D01*
X90532358Y-68772881D01*
X90627596Y-68820500D01*
X90675215Y-68868119D01*
X90722834Y-68963357D01*
X90722834Y-69106214D01*
X90675215Y-69201452D01*
X90627596Y-69249071D01*
X90532358Y-69296690D01*
X90151405Y-69296690D01*
X91675215Y-69772881D02*
X91103786Y-69772881D01*
X91389500Y-69772881D02*
X91389500Y-68772881D01*
X91294262Y-68915738D01*
X91199024Y-69010976D01*
X91103786Y-69058595D01*
X69441584Y-69772881D02*
X69108250Y-69296690D01*
X68870155Y-69772881D02*
X68870155Y-68772881D01*
X69251108Y-68772881D01*
X69346346Y-68820500D01*
X69393965Y-68868119D01*
X69441584Y-68963357D01*
X69441584Y-69106214D01*
X69393965Y-69201452D01*
X69346346Y-69249071D01*
X69251108Y-69296690D01*
X68870155Y-69296690D01*
X69822536Y-68868119D02*
X69870155Y-68820500D01*
X69965393Y-68772881D01*
X70203489Y-68772881D01*
X70298727Y-68820500D01*
X70346346Y-68868119D01*
X70393965Y-68963357D01*
X70393965Y-69058595D01*
X70346346Y-69201452D01*
X69774917Y-69772881D01*
X70393965Y-69772881D01*
X123076226Y-55166262D02*
X123219083Y-55213881D01*
X123457179Y-55213881D01*
X123552417Y-55166262D01*
X123600036Y-55118643D01*
X123647655Y-55023405D01*
X123647655Y-54928167D01*
X123600036Y-54832929D01*
X123552417Y-54785310D01*
X123457179Y-54737690D01*
X123266702Y-54690071D01*
X123171464Y-54642452D01*
X123123845Y-54594833D01*
X123076226Y-54499595D01*
X123076226Y-54404357D01*
X123123845Y-54309119D01*
X123171464Y-54261500D01*
X123266702Y-54213881D01*
X123504798Y-54213881D01*
X123647655Y-54261500D01*
X123980988Y-54213881D02*
X124219083Y-55213881D01*
X124409560Y-54499595D01*
X124600036Y-55213881D01*
X124838131Y-54213881D01*
X125742893Y-55213881D02*
X125171464Y-55213881D01*
X125457178Y-55213881D02*
X125457178Y-54213881D01*
X125361940Y-54356738D01*
X125266702Y-54451976D01*
X125171464Y-54499595D01*
X126123845Y-54309119D02*
X126171464Y-54261500D01*
X126266702Y-54213881D01*
X126504798Y-54213881D01*
X126600036Y-54261500D01*
X126647655Y-54309119D01*
X126695274Y-54404357D01*
X126695274Y-54499595D01*
X126647655Y-54642452D01*
X126076226Y-55213881D01*
X126695274Y-55213881D01*
X104044976Y-74197512D02*
X104187833Y-74245131D01*
X104425929Y-74245131D01*
X104521167Y-74197512D01*
X104568786Y-74149893D01*
X104616405Y-74054655D01*
X104616405Y-73959417D01*
X104568786Y-73864179D01*
X104521167Y-73816560D01*
X104425929Y-73768940D01*
X104235452Y-73721321D01*
X104140214Y-73673702D01*
X104092595Y-73626083D01*
X104044976Y-73530845D01*
X104044976Y-73435607D01*
X104092595Y-73340369D01*
X104140214Y-73292750D01*
X104235452Y-73245131D01*
X104473548Y-73245131D01*
X104616405Y-73292750D01*
X104949738Y-73245131D02*
X105187833Y-74245131D01*
X105378310Y-73530845D01*
X105568786Y-74245131D01*
X105806881Y-73245131D01*
X106711643Y-74245131D02*
X106140214Y-74245131D01*
X106425928Y-74245131D02*
X106425928Y-73245131D01*
X106330690Y-73387988D01*
X106235452Y-73483226D01*
X106140214Y-73530845D01*
X107616405Y-73245131D02*
X107140214Y-73245131D01*
X107092595Y-73721321D01*
X107140214Y-73673702D01*
X107235452Y-73626083D01*
X107473548Y-73626083D01*
X107568786Y-73673702D01*
X107616405Y-73721321D01*
X107664024Y-73816560D01*
X107664024Y-74054655D01*
X107616405Y-74149893D01*
X107568786Y-74197512D01*
X107473548Y-74245131D01*
X107235452Y-74245131D01*
X107140214Y-74197512D01*
X107092595Y-74149893D01*
X161614917Y-55166262D02*
X161757774Y-55213881D01*
X161995870Y-55213881D01*
X162091108Y-55166262D01*
X162138727Y-55118643D01*
X162186346Y-55023405D01*
X162186346Y-54928167D01*
X162138727Y-54832929D01*
X162091108Y-54785310D01*
X161995870Y-54737690D01*
X161805393Y-54690071D01*
X161710155Y-54642452D01*
X161662536Y-54594833D01*
X161614917Y-54499595D01*
X161614917Y-54404357D01*
X161662536Y-54309119D01*
X161710155Y-54261500D01*
X161805393Y-54213881D01*
X162043489Y-54213881D01*
X162186346Y-54261500D01*
X162519679Y-54213881D02*
X162757774Y-55213881D01*
X162948251Y-54499595D01*
X163138727Y-55213881D01*
X163376822Y-54213881D01*
X164281584Y-55213881D02*
X163710155Y-55213881D01*
X163995869Y-55213881D02*
X163995869Y-54213881D01*
X163900631Y-54356738D01*
X163805393Y-54451976D01*
X163710155Y-54499595D01*
X161614917Y-74197512D02*
X161757774Y-74245131D01*
X161995870Y-74245131D01*
X162091108Y-74197512D01*
X162138727Y-74149893D01*
X162186346Y-74054655D01*
X162186346Y-73959417D01*
X162138727Y-73864179D01*
X162091108Y-73816560D01*
X161995870Y-73768940D01*
X161805393Y-73721321D01*
X161710155Y-73673702D01*
X161662536Y-73626083D01*
X161614917Y-73530845D01*
X161614917Y-73435607D01*
X161662536Y-73340369D01*
X161710155Y-73292750D01*
X161805393Y-73245131D01*
X162043489Y-73245131D01*
X162186346Y-73292750D01*
X162519679Y-73245131D02*
X162757774Y-74245131D01*
X162948251Y-73530845D01*
X163138727Y-74245131D01*
X163376822Y-73245131D01*
X163710155Y-73340369D02*
X163757774Y-73292750D01*
X163853012Y-73245131D01*
X164091108Y-73245131D01*
X164186346Y-73292750D01*
X164233965Y-73340369D01*
X164281584Y-73435607D01*
X164281584Y-73530845D01*
X164233965Y-73673702D01*
X163662536Y-74245131D01*
X164281584Y-74245131D01*
X142583667Y-55166262D02*
X142726524Y-55213881D01*
X142964620Y-55213881D01*
X143059858Y-55166262D01*
X143107477Y-55118643D01*
X143155096Y-55023405D01*
X143155096Y-54928167D01*
X143107477Y-54832929D01*
X143059858Y-54785310D01*
X142964620Y-54737690D01*
X142774143Y-54690071D01*
X142678905Y-54642452D01*
X142631286Y-54594833D01*
X142583667Y-54499595D01*
X142583667Y-54404357D01*
X142631286Y-54309119D01*
X142678905Y-54261500D01*
X142774143Y-54213881D01*
X143012239Y-54213881D01*
X143155096Y-54261500D01*
X143488429Y-54213881D02*
X143726524Y-55213881D01*
X143917001Y-54499595D01*
X144107477Y-55213881D01*
X144345572Y-54213881D01*
X145155096Y-54547214D02*
X145155096Y-55213881D01*
X144917000Y-54166262D02*
X144678905Y-54880548D01*
X145297953Y-54880548D01*
X142583667Y-74197512D02*
X142726524Y-74245131D01*
X142964620Y-74245131D01*
X143059858Y-74197512D01*
X143107477Y-74149893D01*
X143155096Y-74054655D01*
X143155096Y-73959417D01*
X143107477Y-73864179D01*
X143059858Y-73816560D01*
X142964620Y-73768940D01*
X142774143Y-73721321D01*
X142678905Y-73673702D01*
X142631286Y-73626083D01*
X142583667Y-73530845D01*
X142583667Y-73435607D01*
X142631286Y-73340369D01*
X142678905Y-73292750D01*
X142774143Y-73245131D01*
X143012239Y-73245131D01*
X143155096Y-73292750D01*
X143488429Y-73245131D02*
X143726524Y-74245131D01*
X143917001Y-73530845D01*
X144107477Y-74245131D01*
X144345572Y-73245131D01*
X145202715Y-73245131D02*
X144726524Y-73245131D01*
X144678905Y-73721321D01*
X144726524Y-73673702D01*
X144821762Y-73626083D01*
X145059858Y-73626083D01*
X145155096Y-73673702D01*
X145202715Y-73721321D01*
X145250334Y-73816560D01*
X145250334Y-74054655D01*
X145202715Y-74149893D01*
X145155096Y-74197512D01*
X145059858Y-74245131D01*
X144821762Y-74245131D01*
X144726524Y-74197512D01*
X144678905Y-74149893D01*
M02*
