G04 #@! TF.FileFunction,Copper,L1,Top,Signal*
%FSLAX46Y46*%
G04 Gerber Fmt 4.6, Leading zero omitted, Abs format (unit mm)*
G04 Created by KiCad (PCBNEW 4.0.7) date 03/10/21 14:30:36*
%MOMM*%
%LPD*%
G01*
G04 APERTURE LIST*
%ADD10C,0.100000*%
%ADD11C,2.200000*%
%ADD12R,1.600000X2.400000*%
%ADD13O,1.600000X2.400000*%
%ADD14C,2.400000*%
%ADD15O,2.400000X2.400000*%
%ADD16R,1.650000X1.650000*%
%ADD17C,1.650000*%
%ADD18C,0.600000*%
%ADD19C,0.250000*%
G04 APERTURE END LIST*
D10*
D11*
X70231000Y-101981000D03*
X63881000Y-104521000D03*
X89281000Y-101981000D03*
X82931000Y-104521000D03*
X70297040Y-57556400D03*
X63947040Y-60096400D03*
X70271640Y-76611480D03*
X63921640Y-79151480D03*
X108331000Y-101981000D03*
X101981000Y-104521000D03*
X89363250Y-57555500D03*
X83013250Y-60095500D03*
X89363250Y-76586750D03*
X83013250Y-79126750D03*
X108394500Y-57555500D03*
X102044500Y-60095500D03*
X127425750Y-76586750D03*
X121075750Y-79126750D03*
D12*
X95175750Y-90555500D03*
D13*
X62155750Y-98175500D03*
X92635750Y-90555500D03*
X64695750Y-98175500D03*
X90095750Y-90555500D03*
X67235750Y-98175500D03*
X87555750Y-90555500D03*
X69775750Y-98175500D03*
X85015750Y-90555500D03*
X72315750Y-98175500D03*
X82475750Y-90555500D03*
X74855750Y-98175500D03*
X79935750Y-90555500D03*
X77395750Y-98175500D03*
X77395750Y-90555500D03*
X79935750Y-98175500D03*
X74855750Y-90555500D03*
X82475750Y-98175500D03*
X72315750Y-90555500D03*
X85015750Y-98175500D03*
X69775750Y-90555500D03*
X87555750Y-98175500D03*
X67235750Y-90555500D03*
X90095750Y-98175500D03*
X64695750Y-90555500D03*
X92635750Y-98175500D03*
X62155750Y-90555500D03*
X95175750Y-98175500D03*
D14*
X83269500Y-72180500D03*
D15*
X98509500Y-72180500D03*
D14*
X61988250Y-72180500D03*
D15*
X77228250Y-72180500D03*
D16*
X77100750Y-43705500D03*
D17*
X68700750Y-48705500D03*
X73900750Y-51805500D03*
X67800750Y-43705500D03*
D11*
X127425750Y-57555500D03*
X121075750Y-60095500D03*
X108394500Y-76586750D03*
X102044500Y-79126750D03*
X165488250Y-57555500D03*
X159138250Y-60095500D03*
X165488250Y-76586750D03*
X159138250Y-79126750D03*
X146457000Y-57555500D03*
X140107000Y-60095500D03*
X146457000Y-76586750D03*
X140107000Y-79126750D03*
D18*
X79613250Y-67586750D03*
X76144500Y-110336750D03*
X79238250Y-86711750D03*
X80644500Y-101055500D03*
X80644500Y-103774250D03*
X92644500Y-103118000D03*
X72957000Y-73774250D03*
X75207000Y-49961750D03*
X95925750Y-54461750D03*
X74550750Y-94399250D03*
X73800750Y-72180500D03*
D19*
X87555750Y-98175500D02*
X87555750Y-103706750D01*
X159769500Y-85868000D02*
X159769500Y-79758000D01*
X155363250Y-90274250D02*
X159769500Y-85868000D01*
X115988250Y-90274250D02*
X155363250Y-90274250D01*
X113738250Y-92524250D02*
X115988250Y-90274250D01*
X113738250Y-108836750D02*
X113738250Y-92524250D01*
X111300750Y-111274250D02*
X113738250Y-108836750D01*
X91144500Y-111274250D02*
X111300750Y-111274250D01*
X89832000Y-109961750D02*
X91144500Y-111274250D01*
X89832000Y-105983000D02*
X89832000Y-109961750D01*
X87555750Y-103706750D02*
X89832000Y-105983000D01*
X159769500Y-79758000D02*
X159138250Y-79126750D01*
X64613250Y-64493000D02*
X64613250Y-60762610D01*
X66488250Y-66368000D02*
X64613250Y-64493000D01*
X78394500Y-66368000D02*
X66488250Y-66368000D01*
X79613250Y-67586750D02*
X78394500Y-66368000D01*
X64613250Y-60762610D02*
X63947040Y-60096400D01*
X77395750Y-98175500D02*
X77395750Y-109085500D01*
X77395750Y-109085500D02*
X76144500Y-110336750D01*
X82475750Y-90555500D02*
X82475750Y-89949250D01*
X82475750Y-89949250D02*
X79238250Y-86711750D01*
X92635750Y-90555500D02*
X92635750Y-90001750D01*
X92635750Y-90001750D02*
X97707000Y-84930500D01*
X97707000Y-84930500D02*
X120113250Y-84930500D01*
X120113250Y-84930500D02*
X121707000Y-83336750D01*
X121707000Y-83336750D02*
X121707000Y-79758000D01*
X121707000Y-79758000D02*
X121075750Y-79126750D01*
X80644500Y-103774250D02*
X80644500Y-101055500D01*
X92635750Y-98175500D02*
X92635750Y-103109250D01*
X92635750Y-103109250D02*
X92644500Y-103118000D01*
X95175750Y-98175500D02*
X95635500Y-98175500D01*
X95635500Y-98175500D02*
X101981000Y-104521000D01*
X77228250Y-72180500D02*
X77175750Y-72180500D01*
X77175750Y-72180500D02*
X75582000Y-73774250D01*
X75582000Y-73774250D02*
X72957000Y-73774250D01*
X69863250Y-49868000D02*
X68700750Y-48705500D01*
X75113250Y-49868000D02*
X69863250Y-49868000D01*
X75207000Y-49961750D02*
X75113250Y-49868000D01*
X76050750Y-54461750D02*
X73900750Y-52311750D01*
X95925750Y-54461750D02*
X76050750Y-54461750D01*
X73900750Y-52311750D02*
X73900750Y-51805500D01*
X67235750Y-90555500D02*
X67235750Y-91120500D01*
X67235750Y-91120500D02*
X65457000Y-92899250D01*
X65457000Y-92899250D02*
X60675750Y-92899250D01*
X60675750Y-92899250D02*
X60019500Y-91680500D01*
X60019500Y-91680500D02*
X60019500Y-57274250D01*
X60019500Y-57274250D02*
X64925750Y-51805500D01*
X64925750Y-51805500D02*
X73900750Y-51805500D01*
X108394500Y-76586750D02*
X127425750Y-76586750D01*
X127425750Y-76586750D02*
X146457000Y-76586750D01*
X146457000Y-76586750D02*
X165488250Y-76586750D01*
X146457000Y-57555500D02*
X165488250Y-57555500D01*
X127425750Y-57555500D02*
X146457000Y-57555500D01*
X108394500Y-57555500D02*
X127425750Y-57555500D01*
X89363250Y-57555500D02*
X108394500Y-57555500D01*
X70297040Y-57556400D02*
X89362350Y-57556400D01*
X89362350Y-57556400D02*
X89363250Y-57555500D01*
X89363250Y-76586750D02*
X70296370Y-76586750D01*
X70296370Y-76586750D02*
X70271640Y-76611480D01*
X64695750Y-98175500D02*
X67235750Y-98175500D01*
X69775750Y-98175500D02*
X69775750Y-99268000D01*
X69775750Y-99268000D02*
X68738250Y-100305500D01*
X68738250Y-100305500D02*
X64285750Y-100305500D01*
X64285750Y-100305500D02*
X62155750Y-98175500D01*
X64894500Y-94399250D02*
X62155750Y-97138000D01*
X74550750Y-94399250D02*
X64894500Y-94399250D01*
X62155750Y-97138000D02*
X62155750Y-98175500D01*
X73800750Y-72180500D02*
X61988250Y-72180500D01*
X83269500Y-72180500D02*
X83175750Y-72180500D01*
X83175750Y-72180500D02*
X80925750Y-69930500D01*
X80925750Y-69930500D02*
X64238250Y-69930500D01*
X64238250Y-69930500D02*
X61988250Y-72180500D01*
M02*
