M48
INCH,TZ
T1C0.043
T2C0.067
T3C0.118
T4C0.157
%
G90
G05
T1
X2.8465Y-1.7207
X2.8465Y-1.9175
T2
X2.465Y-4.215
X2.4666Y-3.2162
X2.4676Y-2.466
X2.865Y-4.215
X2.8666Y-3.2162
X2.8676Y-2.466
X3.215Y-4.215
X3.2182Y-2.466
X3.2182Y-3.2152
X3.615Y-4.215
X3.6182Y-2.466
X3.6182Y-3.2152
X3.965Y-4.215
X3.9675Y-2.466
X3.9675Y-3.2152
X4.365Y-4.215
X4.3675Y-2.466
X4.3675Y-3.2152
X4.7168Y-2.466
X4.7168Y-3.2152
X5.1168Y-2.466
X5.1168Y-3.2152
X5.466Y-2.466
X5.466Y-3.2152
X5.866Y-2.466
X5.866Y-3.2152
X6.2153Y-2.466
X6.2153Y-3.2152
X6.6153Y-2.466
X6.6153Y-3.2152
T3
X2.4146Y-1.7788
X2.415Y-4.72
X4.54Y-3.125
X6.67Y-4.72
X6.6703Y-1.7788
T4
X2.665Y-4.215
X2.6666Y-3.2162
X2.6676Y-2.466
X3.415Y-4.215
X3.4182Y-2.466
X3.4182Y-3.2152
X4.165Y-4.215
X4.1675Y-2.466
X4.1675Y-3.2152
X4.9168Y-2.466
X4.9168Y-3.2152
X5.666Y-2.466
X5.666Y-3.2152
X6.4153Y-2.466
X6.4153Y-3.2152
T0
M30
