M48
INCH,TZ
T1C0.016
T2C0.031
T3C0.043
T4C0.047
T5C0.059
%
G90
G05
T1
X2.8723Y-2.9045
X2.9055Y-2.8418
X2.9351Y-3.7165
X2.9609Y-1.967
X2.9978Y-4.344
X3.1196Y-3.4138
X3.1344Y-2.6609
X3.175Y-3.9786
X3.175Y-4.0856
X3.6474Y-4.0598
X3.7766Y-2.1442
T2
X2.4471Y-3.5652
X2.4471Y-3.8652
X2.5471Y-3.5652
X2.5471Y-3.8652
X2.6471Y-3.5652
X2.6471Y-3.8652
X2.7471Y-3.5652
X2.7471Y-3.8652
X2.8471Y-3.5652
X2.8471Y-3.8652
X2.9471Y-3.5652
X2.9471Y-3.8652
X3.0471Y-3.5652
X3.0471Y-3.8652
X3.1471Y-3.5652
X3.1471Y-3.8652
X3.2471Y-3.5652
X3.2471Y-3.8652
X3.3471Y-3.5652
X3.3471Y-3.8652
X3.4471Y-3.5652
X3.4471Y-3.8652
X3.5471Y-3.5652
X3.5471Y-3.8652
X3.6471Y-3.5652
X3.6471Y-3.8652
X3.7471Y-3.5652
X3.7471Y-3.8652
T3
X2.6693Y-1.7207
X2.7048Y-1.9175
X2.9095Y-2.0396
X3.0355Y-1.7207
T4
X2.4405Y-2.8418
X3.0405Y-2.8418
X3.2783Y-2.8418
X3.8783Y-2.8418
T5
X2.515Y-4.115
X2.5166Y-3.1162
X2.5176Y-2.366
X2.765Y-4.015
X2.7666Y-3.0162
X2.7676Y-2.266
X3.265Y-4.115
X3.2682Y-2.366
X3.2682Y-3.1152
X3.515Y-4.015
X3.5182Y-2.266
X3.5182Y-3.0152
X4.015Y-4.115
X4.0175Y-2.366
X4.0175Y-3.1152
X4.265Y-4.015
X4.2675Y-2.266
X4.2675Y-3.0152
X4.7668Y-2.366
X4.7668Y-3.1152
X5.0168Y-2.266
X5.0168Y-3.0152
X5.516Y-2.366
X5.516Y-3.1152
X5.766Y-2.266
X5.766Y-3.0152
X6.2653Y-2.366
X6.2653Y-3.1152
X6.5153Y-2.266
X6.5153Y-3.0152
T0
M30
