M48
INCH,TZ
T1C0.016
T2C0.031
T3C0.039
T4C0.043
T5C0.047
T6C0.059
%
G90
G05
T1
X3.7139Y-2.1183
X3.7471Y-3.4249
X3.8135Y-2.4247
X3.9058Y-2.6461
X4.1383Y-3.5504
X4.9872Y-3.7719
X5.1496Y-3.6907
X5.2271Y-3.735
X5.2345Y-3.1149
X5.3526Y-2.9894
X5.3637Y-2.875
X5.5409Y-3.2588
X5.8362Y-2.576
X5.8915Y-3.7719
X5.91Y-3.126
X5.9875Y-2.1442
X5.9875Y-2.5243
T2
X5.3371Y-3.5652
X5.3371Y-3.8652
X5.4371Y-3.5652
X5.4371Y-3.8652
X5.5371Y-3.5652
X5.5371Y-3.8652
X5.6371Y-3.5652
X5.6371Y-3.8652
X5.7371Y-3.5652
X5.7371Y-3.8652
X5.8371Y-3.5652
X5.8371Y-3.8652
X5.9371Y-3.5652
X5.9371Y-3.8652
X6.0371Y-3.5652
X6.0371Y-3.8652
X6.1371Y-3.5652
X6.1371Y-3.8652
X6.2371Y-3.5652
X6.2371Y-3.8652
X6.3371Y-3.5652
X6.3371Y-3.8652
X6.4371Y-3.5652
X6.4371Y-3.8652
X6.5371Y-3.5652
X6.5371Y-3.8652
X6.6371Y-3.5652
X6.6371Y-3.8652
T3
X2.4368Y-2.6646
X2.4368Y-2.7646
X2.4368Y-2.8646
X2.4368Y-3.5689
X2.4368Y-3.6689
X3.0347Y-2.3646
X3.0347Y-2.4646
X3.0347Y-2.5646
X3.0347Y-2.6646
X3.0347Y-3.5689
X3.0347Y-3.6689
X3.4383Y-2.8418
X3.5383Y-2.8418
X3.6383Y-2.8418
X3.7383Y-2.8418
X3.8383Y-2.8418
X3.9383Y-2.8418
X4.0383Y-2.8418
X4.1383Y-2.8418
T4
X6.0502Y-1.7244
X6.0857Y-1.9212
X6.2904Y-2.0433
X6.4164Y-1.7244
T5
X4.8855Y-2.8381
X5.4855Y-2.8381
X6.0297Y-2.8381
X6.6297Y-2.8381
T6
X3.2682Y-2.366
X3.2682Y-3.1152
X3.5182Y-2.266
X3.5182Y-3.0152
X4.0175Y-2.366
X4.0175Y-3.1152
X4.2675Y-2.266
X4.2675Y-3.0152
X4.7668Y-2.366
X4.7668Y-3.1152
X4.7668Y-4.1155
X5.0168Y-2.266
X5.0168Y-3.0152
X5.0168Y-4.0155
X5.516Y-2.366
X5.516Y-3.1152
X5.516Y-4.1155
X5.766Y-2.266
X5.766Y-3.0152
X5.766Y-4.0155
X6.2653Y-2.366
X6.2653Y-3.1152
X6.2653Y-4.1155
X6.5153Y-2.266
X6.5153Y-3.0152
X6.5153Y-4.0155
T0
M30
