solid OpenSCAD_Model
  facet normal -1 0 0
    outer loop
      vertex -12 -27 0
      vertex -12 30 8
      vertex -12 30 0
    endloop
  endfacet
  facet normal -1 -0 0
    outer loop
      vertex -12 30 8
      vertex -12 -27 0
      vertex -12 -27 8
    endloop
  endfacet
  facet normal -0 0 1
    outer loop
      vertex -12 30 8
      vertex -9.25 -15 8
      vertex -9.25 30 8
    endloop
  endfacet
  facet normal 0 0 1
    outer loop
      vertex -12 -27 8
      vertex -10.2135 -20.1183 8
      vertex -12 30 8
    endloop
  endfacet
  facet normal 0 0 1
    outer loop
      vertex -9.25 -15 8
      vertex -12 30 8
      vertex -10.2135 -20.1183 8
    endloop
  endfacet
  facet normal -0 0 1
    outer loop
      vertex -9.25 -15 8
      vertex -7.5 -21 8
      vertex 9 -15 8
    endloop
  endfacet
  facet normal 0 0 1
    outer loop
      vertex -7.5 -21 8
      vertex -9.25 -15 8
      vertex -8.53647 -19.5734 8
    endloop
  endfacet
  facet normal 0 0 1
    outer loop
      vertex -8.53647 -19.5734 8
      vertex -9.25 -15 8
      vertex -10.2135 -20.1183 8
    endloop
  endfacet
  facet normal 0 0 1
    outer loop
      vertex 9 -15 8
      vertex 10 24 8
      vertex 9 24 8
    endloop
  endfacet
  facet normal 0 0 1
    outer loop
      vertex 10 24 8
      vertex 9 -15 8
      vertex 10 -27 8
    endloop
  endfacet
  facet normal -0 0 1
    outer loop
      vertex -7.5 -21 8
      vertex 10 -27 8
      vertex 9 -15 8
    endloop
  endfacet
  facet normal -0 0 1
    outer loop
      vertex -8.53647 -22.4266 8
      vertex 10 -27 8
      vertex -7.5 -21 8
    endloop
  endfacet
  facet normal 0 0 1
    outer loop
      vertex -8.53647 -22.4266 8
      vertex -12 -27 8
      vertex 10 -27 8
    endloop
  endfacet
  facet normal 0 0 1
    outer loop
      vertex -10.2135 -21.8817 8
      vertex -12 -27 8
      vertex -8.53647 -22.4266 8
    endloop
  endfacet
  facet normal 0 0 1
    outer loop
      vertex -10.2135 -20.1183 8
      vertex -12 -27 8
      vertex -10.2135 -21.8817 8
    endloop
  endfacet
  facet normal -1 0 0
    outer loop
      vertex 9 -15 1.5
      vertex 9 24 8
      vertex 9 24 1.5
    endloop
  endfacet
  facet normal -1 -0 0
    outer loop
      vertex 9 24 8
      vertex 9 -15 1.5
      vertex 9 -15 8
    endloop
  endfacet
  facet normal 0 1 0
    outer loop
      vertex -7 30 1.5
      vertex -7 30 0
      vertex -9.25 30 1.5
    endloop
  endfacet
  facet normal 0 1 -0
    outer loop
      vertex -9.25 30 1.5
      vertex -12 30 8
      vertex -9.25 30 8
    endloop
  endfacet
  facet normal 0 1 0
    outer loop
      vertex -9.25 30 1.5
      vertex -12 30 0
      vertex -12 30 8
    endloop
  endfacet
  facet normal 0 1 0
    outer loop
      vertex -12 30 0
      vertex -9.25 30 1.5
      vertex -7 30 0
    endloop
  endfacet
  facet normal 0 0 -1
    outer loop
      vertex 2.5 3.5 0
      vertex 10 24 0
      vertex 10 -27 0
    endloop
  endfacet
  facet normal 0 0 -1
    outer loop
      vertex 2.5 7.5 0
      vertex 10 24 0
      vertex 2.5 3.5 0
    endloop
  endfacet
  facet normal 0 0 -1
    outer loop
      vertex 10 -27 0
      vertex 2.2 -10.5 0
      vertex 2.5 3.5 0
    endloop
  endfacet
  facet normal 0 0 -1
    outer loop
      vertex 10 -27 0
      vertex 1.37168 -12.22 0
      vertex 2.2 -10.5 0
    endloop
  endfacet
  facet normal 0 0 -1
    outer loop
      vertex 10 -27 0
      vertex -0.489546 -12.6448 0
      vertex 1.37168 -12.22 0
    endloop
  endfacet
  facet normal 0 0 -1
    outer loop
      vertex -7.5 -21 0
      vertex -0.489546 -12.6448 0
      vertex 10 -27 0
    endloop
  endfacet
  facet normal 0 0 -1
    outer loop
      vertex -8.53647 -19.5734 0
      vertex -1.98213 -9.54545 0
      vertex -1.98213 -11.4545 0
    endloop
  endfacet
  facet normal 0 0 -1
    outer loop
      vertex -12 30 0
      vertex -5.5 7.5 0
      vertex -5.5 3.5 0
    endloop
  endfacet
  facet normal -0 0 -1
    outer loop
      vertex -1.98213 -9.54545 0
      vertex -10.2135 -20.1183 0
      vertex -5.5 3.5 0
    endloop
  endfacet
  facet normal 0 0 -1
    outer loop
      vertex -1.98213 -9.54545 0
      vertex -8.53647 -19.5734 0
      vertex -10.2135 -20.1183 0
    endloop
  endfacet
  facet normal -0 0 -1
    outer loop
      vertex -0.489546 -12.6448 0
      vertex -8.53647 -19.5734 0
      vertex -1.98213 -11.4545 0
    endloop
  endfacet
  facet normal 0 0 -1
    outer loop
      vertex -8.53647 -19.5734 0
      vertex -0.489546 -12.6448 0
      vertex -7.5 -21 0
    endloop
  endfacet
  facet normal 0 0 -1
    outer loop
      vertex 10 -27 0
      vertex -8.53647 -22.4266 0
      vertex -7.5 -21 0
    endloop
  endfacet
  facet normal -0 0 -1
    outer loop
      vertex -10.2135 -21.8817 0
      vertex -12 -27 0
      vertex -10.2135 -20.1183 0
    endloop
  endfacet
  facet normal -0 0 -1
    outer loop
      vertex -8.53647 -22.4266 0
      vertex -12 -27 0
      vertex -10.2135 -21.8817 0
    endloop
  endfacet
  facet normal 0 0 -1
    outer loop
      vertex -12 -27 0
      vertex -8.53647 -22.4266 0
      vertex 10 -27 0
    endloop
  endfacet
  facet normal -0 0 -1
    outer loop
      vertex 10 24 0
      vertex 2.5 7.5 0
      vertex 9 24 0
    endloop
  endfacet
  facet normal 0 0 -1
    outer loop
      vertex -7 24 0
      vertex 2.5 7.5 0
      vertex -5.5 7.5 0
    endloop
  endfacet
  facet normal 0 0 -1
    outer loop
      vertex 2.5 7.5 0
      vertex -7 24 0
      vertex 9 24 0
    endloop
  endfacet
  facet normal 0 0 -1
    outer loop
      vertex 1.37168 -8.77997 0
      vertex 2.5 3.5 0
      vertex 2.2 -10.5 0
    endloop
  endfacet
  facet normal 0 0 -1
    outer loop
      vertex -0.489546 -8.35516 0
      vertex 2.5 3.5 0
      vertex 1.37168 -8.77997 0
    endloop
  endfacet
  facet normal 0 0 -1
    outer loop
      vertex -5.5 3.5 0
      vertex -0.489546 -8.35516 0
      vertex -1.98213 -9.54545 0
    endloop
  endfacet
  facet normal 0 0 -1
    outer loop
      vertex -0.489546 -8.35516 0
      vertex -5.5 3.5 0
      vertex 2.5 3.5 0
    endloop
  endfacet
  facet normal 0 0 -1
    outer loop
      vertex -12 30 0
      vertex -5.5 3.5 0
      vertex -10.2135 -20.1183 0
    endloop
  endfacet
  facet normal 0 0 -1
    outer loop
      vertex -5.5 7.5 0
      vertex -12 30 0
      vertex -7 24 0
    endloop
  endfacet
  facet normal 0 0 -1
    outer loop
      vertex -12 30 0
      vertex -10.2135 -20.1183 0
      vertex -12 -27 0
    endloop
  endfacet
  facet normal 0 0 -1
    outer loop
      vertex -7 24 0
      vertex -12 30 0
      vertex -7 30 0
    endloop
  endfacet
  facet normal 0 -1 0
    outer loop
      vertex -12 -27 0
      vertex 10 -27 8
      vertex -12 -27 8
    endloop
  endfacet
  facet normal 0 -1 -0
    outer loop
      vertex 10 -27 8
      vertex -12 -27 0
      vertex 10 -27 0
    endloop
  endfacet
  facet normal 1 -0 0
    outer loop
      vertex -5.5 3.5 1.5
      vertex -5.5 7.5 0
      vertex -5.5 7.5 1.5
    endloop
  endfacet
  facet normal 1 0 0
    outer loop
      vertex -5.5 7.5 0
      vertex -5.5 3.5 1.5
      vertex -5.5 3.5 0
    endloop
  endfacet
  facet normal -1 0 0
    outer loop
      vertex 2.5 3.5 0
      vertex 2.5 7.5 1.5
      vertex 2.5 7.5 0
    endloop
  endfacet
  facet normal -1 -0 0
    outer loop
      vertex 2.5 7.5 1.5
      vertex 2.5 3.5 0
      vertex 2.5 3.5 1.5
    endloop
  endfacet
  facet normal 0 -1 0
    outer loop
      vertex -5.5 7.5 0
      vertex 2.5 7.5 1.5
      vertex -5.5 7.5 1.5
    endloop
  endfacet
  facet normal 0 -1 -0
    outer loop
      vertex 2.5 7.5 1.5
      vertex -5.5 7.5 0
      vertex 2.5 7.5 0
    endloop
  endfacet
  facet normal 0 1 -0
    outer loop
      vertex 2.5 3.5 0
      vertex -5.5 3.5 1.5
      vertex 2.5 3.5 1.5
    endloop
  endfacet
  facet normal 0 1 0
    outer loop
      vertex -5.5 3.5 1.5
      vertex 2.5 3.5 0
      vertex -5.5 3.5 0
    endloop
  endfacet
  facet normal 1 -0 0
    outer loop
      vertex -7 24 1.5
      vertex -7 30 0
      vertex -7 30 1.5
    endloop
  endfacet
  facet normal 1 0 0
    outer loop
      vertex -7 30 0
      vertex -7 24 1.5
      vertex -7 24 0
    endloop
  endfacet
  facet normal 0 1 -0
    outer loop
      vertex 9 24 0
      vertex -7 24 1.5
      vertex 9 24 1.5
    endloop
  endfacet
  facet normal 0 1 0
    outer loop
      vertex -7 24 1.5
      vertex 9 24 0
      vertex -7 24 0
    endloop
  endfacet
  facet normal -0.900969 -0.433884 0
    outer loop
      vertex 2.2 -10.5 0
      vertex 1.37168 -8.77997 1.5
      vertex 1.37168 -8.77997 0
    endloop
  endfacet
  facet normal -0.900969 -0.433884 0
    outer loop
      vertex 1.37168 -8.77997 1.5
      vertex 2.2 -10.5 0
      vertex 2.2 -10.5 1.5
    endloop
  endfacet
  facet normal 1 -0 0
    outer loop
      vertex -1.98213 -11.4545 1.5
      vertex -1.98213 -9.54545 0
      vertex -1.98213 -9.54545 1.5
    endloop
  endfacet
  facet normal 1 0 0
    outer loop
      vertex -1.98213 -9.54545 0
      vertex -1.98213 -11.4545 1.5
      vertex -1.98213 -11.4545 0
    endloop
  endfacet
  facet normal 0.62349 -0.781831 0
    outer loop
      vertex -1.98213 -9.54545 0
      vertex -0.489546 -8.35516 1.5
      vertex -1.98213 -9.54545 1.5
    endloop
  endfacet
  facet normal 0.62349 -0.781831 0
    outer loop
      vertex -0.489546 -8.35516 1.5
      vertex -1.98213 -9.54545 0
      vertex -0.489546 -8.35516 0
    endloop
  endfacet
  facet normal -0.222521 -0.974928 0
    outer loop
      vertex -0.489546 -8.35516 0
      vertex 1.37168 -8.77997 1.5
      vertex -0.489546 -8.35516 1.5
    endloop
  endfacet
  facet normal -0.222521 -0.974928 -0
    outer loop
      vertex 1.37168 -8.77997 1.5
      vertex -0.489546 -8.35516 0
      vertex 1.37168 -8.77997 0
    endloop
  endfacet
  facet normal -0.900969 0.433884 0
    outer loop
      vertex 1.37168 -12.22 0
      vertex 2.2 -10.5 1.5
      vertex 2.2 -10.5 0
    endloop
  endfacet
  facet normal -0.900969 0.433884 0
    outer loop
      vertex 2.2 -10.5 1.5
      vertex 1.37168 -12.22 0
      vertex 1.37168 -12.22 1.5
    endloop
  endfacet
  facet normal -0.222521 0.974928 0
    outer loop
      vertex 1.37168 -12.22 0
      vertex -0.489546 -12.6448 1.5
      vertex 1.37168 -12.22 1.5
    endloop
  endfacet
  facet normal -0.222521 0.974928 0
    outer loop
      vertex -0.489546 -12.6448 1.5
      vertex 1.37168 -12.22 0
      vertex -0.489546 -12.6448 0
    endloop
  endfacet
  facet normal 0.62349 0.781831 -0
    outer loop
      vertex -0.489546 -12.6448 0
      vertex -1.98213 -11.4545 1.5
      vertex -0.489546 -12.6448 1.5
    endloop
  endfacet
  facet normal 0.62349 0.781831 0
    outer loop
      vertex -1.98213 -11.4545 1.5
      vertex -0.489546 -12.6448 0
      vertex -1.98213 -11.4545 0
    endloop
  endfacet
  facet normal -0.809017 -0.587785 0
    outer loop
      vertex -7.5 -21 0
      vertex -8.53647 -19.5734 8
      vertex -8.53647 -19.5734 0
    endloop
  endfacet
  facet normal -0.809017 -0.587785 0
    outer loop
      vertex -8.53647 -19.5734 8
      vertex -7.5 -21 0
      vertex -7.5 -21 8
    endloop
  endfacet
  facet normal 1 -0 0
    outer loop
      vertex -10.2135 -21.8817 8
      vertex -10.2135 -20.1183 0
      vertex -10.2135 -20.1183 8
    endloop
  endfacet
  facet normal 1 0 0
    outer loop
      vertex -10.2135 -20.1183 0
      vertex -10.2135 -21.8817 8
      vertex -10.2135 -21.8817 0
    endloop
  endfacet
  facet normal 0.309017 -0.951057 0
    outer loop
      vertex -10.2135 -20.1183 0
      vertex -8.53647 -19.5734 8
      vertex -10.2135 -20.1183 8
    endloop
  endfacet
  facet normal 0.309017 -0.951057 0
    outer loop
      vertex -8.53647 -19.5734 8
      vertex -10.2135 -20.1183 0
      vertex -8.53647 -19.5734 0
    endloop
  endfacet
  facet normal 0.309017 0.951057 -0
    outer loop
      vertex -8.53647 -22.4266 0
      vertex -10.2135 -21.8817 8
      vertex -8.53647 -22.4266 8
    endloop
  endfacet
  facet normal 0.309017 0.951057 0
    outer loop
      vertex -10.2135 -21.8817 8
      vertex -8.53647 -22.4266 0
      vertex -10.2135 -21.8817 0
    endloop
  endfacet
  facet normal -0.809017 0.587785 0
    outer loop
      vertex -8.53647 -22.4266 0
      vertex -7.5 -21 8
      vertex -7.5 -21 0
    endloop
  endfacet
  facet normal -0.809017 0.587785 0
    outer loop
      vertex -7.5 -21 8
      vertex -8.53647 -22.4266 0
      vertex -8.53647 -22.4266 8
    endloop
  endfacet
  facet normal 1 -0 0
    outer loop
      vertex -9.25 -15 8
      vertex -9.25 30 1.5
      vertex -9.25 30 8
    endloop
  endfacet
  facet normal 1 0 0
    outer loop
      vertex -9.25 30 1.5
      vertex -9.25 -15 8
      vertex -9.25 -15 1.5
    endloop
  endfacet
  facet normal 0 0 1
    outer loop
      vertex -7 30 1.5
      vertex -9.25 30 1.5
      vertex -7 24 1.5
    endloop
  endfacet
  facet normal 0 0 1
    outer loop
      vertex 9 -15 1.5
      vertex 1.37168 -8.77997 1.5
      vertex 2.2 -10.5 1.5
    endloop
  endfacet
  facet normal 0 0 1
    outer loop
      vertex 2.5 3.5 1.5
      vertex -0.489546 -8.35516 1.5
      vertex 1.37168 -8.77997 1.5
    endloop
  endfacet
  facet normal -0 0 1
    outer loop
      vertex -5.5 3.5 1.5
      vertex -0.489546 -8.35516 1.5
      vertex 2.5 3.5 1.5
    endloop
  endfacet
  facet normal 0 0 1
    outer loop
      vertex -9.25 -15 1.5
      vertex -1.98213 -9.54545 1.5
      vertex -5.5 3.5 1.5
    endloop
  endfacet
  facet normal 0 0 1
    outer loop
      vertex -0.489546 -8.35516 1.5
      vertex -5.5 3.5 1.5
      vertex -1.98213 -9.54545 1.5
    endloop
  endfacet
  facet normal 0 0 1
    outer loop
      vertex 2.5 3.5 1.5
      vertex 9 24 1.5
      vertex 2.5 7.5 1.5
    endloop
  endfacet
  facet normal -0 0 1
    outer loop
      vertex -7 24 1.5
      vertex 2.5 7.5 1.5
      vertex 9 24 1.5
    endloop
  endfacet
  facet normal 0 0 1
    outer loop
      vertex -9.25 30 1.5
      vertex -5.5 7.5 1.5
      vertex -7 24 1.5
    endloop
  endfacet
  facet normal 0 0 1
    outer loop
      vertex 2.5 7.5 1.5
      vertex -7 24 1.5
      vertex -5.5 7.5 1.5
    endloop
  endfacet
  facet normal 0 0 1
    outer loop
      vertex 9 24 1.5
      vertex 2.5 3.5 1.5
      vertex 9 -15 1.5
    endloop
  endfacet
  facet normal -0 0 1
    outer loop
      vertex 1.37168 -8.77997 1.5
      vertex 9 -15 1.5
      vertex 2.5 3.5 1.5
    endloop
  endfacet
  facet normal -0 0 1
    outer loop
      vertex 1.37168 -12.22 1.5
      vertex 9 -15 1.5
      vertex 2.2 -10.5 1.5
    endloop
  endfacet
  facet normal -0 0 1
    outer loop
      vertex -0.489546 -12.6448 1.5
      vertex 9 -15 1.5
      vertex 1.37168 -12.22 1.5
    endloop
  endfacet
  facet normal 0 0 1
    outer loop
      vertex -9.25 -15 1.5
      vertex -5.5 7.5 1.5
      vertex -9.25 30 1.5
    endloop
  endfacet
  facet normal 0 0 1
    outer loop
      vertex -0.489546 -12.6448 1.5
      vertex -9.25 -15 1.5
      vertex 9 -15 1.5
    endloop
  endfacet
  facet normal 0 0 1
    outer loop
      vertex -1.98213 -11.4545 1.5
      vertex -9.25 -15 1.5
      vertex -0.489546 -12.6448 1.5
    endloop
  endfacet
  facet normal 0 0 1
    outer loop
      vertex -1.98213 -9.54545 1.5
      vertex -9.25 -15 1.5
      vertex -1.98213 -11.4545 1.5
    endloop
  endfacet
  facet normal 0 0 1
    outer loop
      vertex -5.5 7.5 1.5
      vertex -9.25 -15 1.5
      vertex -5.5 3.5 1.5
    endloop
  endfacet
  facet normal 0 1 -0
    outer loop
      vertex 9 -15 1.5
      vertex -9.25 -15 8
      vertex 9 -15 8
    endloop
  endfacet
  facet normal 0 1 0
    outer loop
      vertex -9.25 -15 8
      vertex 9 -15 1.5
      vertex -9.25 -15 1.5
    endloop
  endfacet
  facet normal 1 -0 0
    outer loop
      vertex 10 -27 8
      vertex 10 24 0
      vertex 10 24 8
    endloop
  endfacet
  facet normal 1 0 0
    outer loop
      vertex 10 24 0
      vertex 10 -27 8
      vertex 10 -27 0
    endloop
  endfacet
  facet normal 0 1 0
    outer loop
      vertex 10 24 8
      vertex 9 24 1.5
      vertex 9 24 8
    endloop
  endfacet
  facet normal 0 1 -0
    outer loop
      vertex 10 24 0
      vertex 9 24 1.5
      vertex 10 24 8
    endloop
  endfacet
  facet normal 0 1 0
    outer loop
      vertex 9 24 1.5
      vertex 10 24 0
      vertex 9 24 0
    endloop
  endfacet
endsolid OpenSCAD_Model
