G04 #@! TF.FileFunction,Copper,L2,Bot,Signal*
%FSLAX46Y46*%
G04 Gerber Fmt 4.6, Leading zero omitted, Abs format (unit mm)*
G04 Created by KiCad (PCBNEW 4.0.7) date 03/10/21 14:25:49*
%MOMM*%
%LPD*%
G01*
G04 APERTURE LIST*
%ADD10C,0.100000*%
%ADD11C,2.200000*%
%ADD12R,1.600000X2.400000*%
%ADD13O,1.600000X2.400000*%
%ADD14C,2.400000*%
%ADD15O,2.400000X2.400000*%
%ADD16R,1.700000X1.700000*%
%ADD17O,1.700000X1.700000*%
%ADD18R,1.650000X1.650000*%
%ADD19C,1.650000*%
%ADD20C,0.600000*%
%ADD21C,0.250000*%
G04 APERTURE END LIST*
D10*
D11*
X165488250Y-57555500D03*
X159138250Y-60095500D03*
X165488250Y-76586750D03*
X159138250Y-79126750D03*
X127425750Y-101993000D03*
X121075750Y-104533000D03*
X146457000Y-57555500D03*
X140107000Y-60095500D03*
X146457000Y-101993000D03*
X140107000Y-104533000D03*
X165488250Y-101993000D03*
X159138250Y-104533000D03*
X89363250Y-57555500D03*
X83013250Y-60095500D03*
X89363250Y-76586750D03*
X83013250Y-79126750D03*
X108394500Y-57555500D03*
X102044500Y-60095500D03*
X108394500Y-76586750D03*
X102044500Y-79126750D03*
D12*
X168582000Y-90555500D03*
D13*
X135562000Y-98175500D03*
X166042000Y-90555500D03*
X138102000Y-98175500D03*
X163502000Y-90555500D03*
X140642000Y-98175500D03*
X160962000Y-90555500D03*
X143182000Y-98175500D03*
X158422000Y-90555500D03*
X145722000Y-98175500D03*
X155882000Y-90555500D03*
X148262000Y-98175500D03*
X153342000Y-90555500D03*
X150802000Y-98175500D03*
X150802000Y-90555500D03*
X153342000Y-98175500D03*
X148262000Y-90555500D03*
X155882000Y-98175500D03*
X145722000Y-90555500D03*
X158422000Y-98175500D03*
X143182000Y-90555500D03*
X160962000Y-98175500D03*
X140642000Y-90555500D03*
X163502000Y-98175500D03*
X138102000Y-90555500D03*
X166042000Y-98175500D03*
X135562000Y-90555500D03*
X168582000Y-98175500D03*
D14*
X139332000Y-72086750D03*
D15*
X124092000Y-72086750D03*
D14*
X168394500Y-72086750D03*
D15*
X153154500Y-72086750D03*
D16*
X61894500Y-67680500D03*
D17*
X61894500Y-70220500D03*
X61894500Y-72760500D03*
D16*
X77082000Y-90649250D03*
D17*
X77082000Y-93189250D03*
D16*
X61894500Y-90649250D03*
D17*
X61894500Y-93189250D03*
D18*
X162975750Y-43799250D03*
D19*
X154575750Y-48799250D03*
X159775750Y-51899250D03*
X153675750Y-43799250D03*
D11*
X127425750Y-76586750D03*
X121075750Y-79126750D03*
X127425750Y-57555500D03*
X121075750Y-60095500D03*
D16*
X105113250Y-72180500D03*
D17*
X102573250Y-72180500D03*
X100033250Y-72180500D03*
X97493250Y-72180500D03*
X94953250Y-72180500D03*
X92413250Y-72180500D03*
X89873250Y-72180500D03*
X87333250Y-72180500D03*
D16*
X77082000Y-67680500D03*
D17*
X77082000Y-65140500D03*
X77082000Y-62600500D03*
X77082000Y-60060500D03*
D11*
X146457000Y-76586750D03*
X140107000Y-79126750D03*
D20*
X152082000Y-64118000D03*
X152082000Y-54461750D03*
X132769500Y-94868000D03*
X130800750Y-93743000D03*
X132957000Y-79118000D03*
X150113250Y-79399250D03*
X148238250Y-65430500D03*
X126675750Y-95805500D03*
X149644500Y-95805500D03*
X95175750Y-86993000D03*
X105113250Y-90180500D03*
X136238250Y-73024250D03*
X135957000Y-75930500D03*
X140738250Y-82774250D03*
X99207000Y-67211750D03*
X96863250Y-61586750D03*
X94332000Y-53805500D03*
D21*
X148262000Y-90555500D02*
X148262000Y-84204250D01*
X146925750Y-79680500D02*
X139332000Y-72086750D01*
X146925750Y-82868000D02*
X146925750Y-79680500D01*
X148262000Y-84204250D02*
X146925750Y-82868000D01*
X152082000Y-64118000D02*
X152082000Y-58493000D01*
X152082000Y-58493000D02*
X152082000Y-54461750D01*
X143182000Y-98175500D02*
X143182000Y-97861750D01*
X143182000Y-97861750D02*
X148262000Y-92781750D01*
X148262000Y-92781750D02*
X148262000Y-90555500D01*
X61894500Y-93189250D02*
X64323250Y-93189250D01*
X70925750Y-51899250D02*
X159775750Y-51899250D01*
X68175750Y-54649250D02*
X70925750Y-51899250D01*
X68175750Y-89336750D02*
X68175750Y-54649250D01*
X64323250Y-93189250D02*
X68175750Y-89336750D01*
X160962000Y-98175500D02*
X160962000Y-97238000D01*
X160962000Y-97238000D02*
X162582000Y-95618000D01*
X162582000Y-95618000D02*
X168488250Y-95618000D01*
X168488250Y-95618000D02*
X170644500Y-93461750D01*
X170644500Y-93461750D02*
X170644500Y-81274250D01*
X170644500Y-81274250D02*
X168497000Y-79126750D01*
X168497000Y-79126750D02*
X159138250Y-79126750D01*
X132769500Y-94868000D02*
X132769500Y-88680500D01*
X132769500Y-88680500D02*
X134644500Y-86805500D01*
X134644500Y-86805500D02*
X134644500Y-61868000D01*
X134644500Y-61868000D02*
X136417000Y-60095500D01*
X136417000Y-60095500D02*
X140107000Y-60095500D01*
X130800750Y-93743000D02*
X130800750Y-87836750D01*
X130800750Y-87836750D02*
X132957000Y-85680500D01*
X132957000Y-85680500D02*
X132957000Y-79118000D01*
X150207000Y-79399250D02*
X150113250Y-79399250D01*
X150207000Y-67399250D02*
X150207000Y-79399250D01*
X148238250Y-65430500D02*
X150207000Y-67399250D01*
X121075750Y-79126750D02*
X121075750Y-79330500D01*
X121075750Y-79330500D02*
X121988250Y-80243000D01*
X121988250Y-80243000D02*
X121988250Y-91211750D01*
X121988250Y-91211750D02*
X126582000Y-95805500D01*
X126582000Y-95805500D02*
X126675750Y-95805500D01*
X149644500Y-95805500D02*
X156488250Y-95805500D01*
X156488250Y-95805500D02*
X160962000Y-91331750D01*
X160962000Y-91331750D02*
X160962000Y-90555500D01*
X78675750Y-69649250D02*
X81207000Y-67118000D01*
X95175750Y-86993000D02*
X83457000Y-86993000D01*
X83457000Y-86993000D02*
X78675750Y-82211750D01*
X78675750Y-82211750D02*
X78675750Y-69930500D01*
X78675750Y-69930500D02*
X78675750Y-69649250D01*
X83925750Y-61774250D02*
X83013250Y-60861750D01*
X83925750Y-62336750D02*
X83925750Y-61774250D01*
X83925750Y-64399250D02*
X83925750Y-62336750D01*
X81207000Y-67118000D02*
X83925750Y-64399250D01*
X83013250Y-60861750D02*
X83013250Y-60095500D01*
X105113250Y-90180500D02*
X103894500Y-90180500D01*
X102044500Y-79986750D02*
X102863250Y-80805500D01*
X102863250Y-80805500D02*
X102863250Y-88024250D01*
X102863250Y-89149250D02*
X102863250Y-88024250D01*
X103894500Y-90180500D02*
X102863250Y-89149250D01*
X102044500Y-79126750D02*
X102044500Y-79986750D01*
X137363250Y-87276750D02*
X140642000Y-90555500D01*
X137363250Y-74149250D02*
X137363250Y-87276750D01*
X136238250Y-73024250D02*
X137363250Y-74149250D01*
X138102000Y-90555500D02*
X138102000Y-89888000D01*
X138102000Y-89888000D02*
X135957000Y-87743000D01*
X135957000Y-87743000D02*
X135957000Y-75930500D01*
X140107000Y-104533000D02*
X142323250Y-104533000D01*
X162599500Y-101618000D02*
X166042000Y-98175500D01*
X157894500Y-101618000D02*
X162599500Y-101618000D01*
X155550750Y-103961750D02*
X157894500Y-101618000D01*
X142894500Y-103961750D02*
X155550750Y-103961750D01*
X142323250Y-104533000D02*
X142894500Y-103961750D01*
X159138250Y-104533000D02*
X161635750Y-104533000D01*
X168582000Y-102555500D02*
X168582000Y-98175500D01*
X167363250Y-103774250D02*
X168582000Y-102555500D01*
X162394500Y-103774250D02*
X167363250Y-103774250D01*
X161635750Y-104533000D02*
X162394500Y-103774250D01*
X92413250Y-72180500D02*
X92413250Y-73536750D01*
X92413250Y-73536750D02*
X89363250Y-76586750D01*
X145722000Y-87758000D02*
X145722000Y-90555500D01*
X140738250Y-82774250D02*
X145722000Y-87758000D01*
X140642000Y-98175500D02*
X140642000Y-98058000D01*
X140642000Y-98058000D02*
X145722000Y-92978000D01*
X145722000Y-92978000D02*
X145722000Y-90555500D01*
X135562000Y-98175500D02*
X131243250Y-98175500D01*
X131243250Y-98175500D02*
X127425750Y-101993000D01*
X146457000Y-101993000D02*
X144459500Y-101993000D01*
X144459500Y-101993000D02*
X140642000Y-98175500D01*
X162975750Y-43799250D02*
X162975750Y-47824250D01*
X165488250Y-50336750D02*
X165488250Y-57555500D01*
X162975750Y-47824250D02*
X165488250Y-50336750D01*
X108394500Y-57555500D02*
X108394500Y-76586750D01*
X127425750Y-57555500D02*
X127425750Y-76586750D01*
X146457000Y-57555500D02*
X146457000Y-76586750D01*
X165488250Y-57555500D02*
X165488250Y-76586750D01*
X146024600Y-91033600D02*
X146024600Y-90985600D01*
X61894500Y-90649250D02*
X61894500Y-82868000D01*
X67369500Y-48799250D02*
X154575750Y-48799250D01*
X65644500Y-50524250D02*
X67369500Y-48799250D01*
X65644500Y-79118000D02*
X65644500Y-50524250D01*
X61894500Y-82868000D02*
X65644500Y-79118000D01*
X100033250Y-72180500D02*
X100033250Y-68038000D01*
X100033250Y-68038000D02*
X99207000Y-67211750D01*
X97493250Y-72180500D02*
X97493250Y-62216750D01*
X97493250Y-62216750D02*
X96863250Y-61586750D01*
X94953250Y-72180500D02*
X94953250Y-54426750D01*
X94953250Y-54426750D02*
X94332000Y-53805500D01*
M02*
