G04 #@! TF.FileFunction,Legend,Top*
%FSLAX46Y46*%
G04 Gerber Fmt 4.6, Leading zero omitted, Abs format (unit mm)*
G04 Created by KiCad (PCBNEW 4.0.7) date 03/10/21 14:25:49*
%MOMM*%
%LPD*%
G01*
G04 APERTURE LIST*
%ADD10C,0.100000*%
%ADD11C,0.200000*%
%ADD12C,0.500000*%
%ADD13C,0.300000*%
%ADD14C,0.120000*%
%ADD15C,0.127000*%
%ADD16C,0.400000*%
%ADD17C,0.150000*%
%ADD18C,0.015000*%
G04 APERTURE END LIST*
D10*
D11*
X64347179Y-93800440D02*
X64532893Y-93862345D01*
X64842417Y-93862345D01*
X64966227Y-93800440D01*
X65028131Y-93738536D01*
X65090036Y-93614726D01*
X65090036Y-93490917D01*
X65028131Y-93367107D01*
X64966227Y-93305202D01*
X64842417Y-93243298D01*
X64594798Y-93181393D01*
X64470989Y-93119488D01*
X64409084Y-93057583D01*
X64347179Y-92933774D01*
X64347179Y-92809964D01*
X64409084Y-92686155D01*
X64470989Y-92624250D01*
X64594798Y-92562345D01*
X64904322Y-92562345D01*
X65090036Y-92624250D01*
X65647179Y-93862345D02*
X65647179Y-92562345D01*
X65956703Y-92562345D01*
X66142417Y-92624250D01*
X66266226Y-92748060D01*
X66328131Y-92871869D01*
X66390036Y-93119488D01*
X66390036Y-93305202D01*
X66328131Y-93552821D01*
X66266226Y-93676631D01*
X66142417Y-93800440D01*
X65956703Y-93862345D01*
X65647179Y-93862345D01*
X66885274Y-93490917D02*
X67504322Y-93490917D01*
X66761465Y-93862345D02*
X67194798Y-92562345D01*
X67628131Y-93862345D01*
X64471881Y-90987940D02*
X64657595Y-91049845D01*
X64967119Y-91049845D01*
X65090929Y-90987940D01*
X65152833Y-90926036D01*
X65214738Y-90802226D01*
X65214738Y-90678417D01*
X65152833Y-90554607D01*
X65090929Y-90492702D01*
X64967119Y-90430798D01*
X64719500Y-90368893D01*
X64595691Y-90306988D01*
X64533786Y-90245083D01*
X64471881Y-90121274D01*
X64471881Y-89997464D01*
X64533786Y-89873655D01*
X64595691Y-89811750D01*
X64719500Y-89749845D01*
X65029024Y-89749845D01*
X65214738Y-89811750D01*
X66514738Y-90926036D02*
X66452833Y-90987940D01*
X66267119Y-91049845D01*
X66143309Y-91049845D01*
X65957595Y-90987940D01*
X65833786Y-90864131D01*
X65771881Y-90740321D01*
X65709976Y-90492702D01*
X65709976Y-90306988D01*
X65771881Y-90059369D01*
X65833786Y-89935560D01*
X65957595Y-89811750D01*
X66143309Y-89749845D01*
X66267119Y-89749845D01*
X66452833Y-89811750D01*
X66514738Y-89873655D01*
X67690928Y-91049845D02*
X67071881Y-91049845D01*
X67071881Y-89749845D01*
X65122774Y-72280500D02*
X64998965Y-72218595D01*
X64813250Y-72218595D01*
X64627536Y-72280500D01*
X64503727Y-72404310D01*
X64441822Y-72528119D01*
X64379917Y-72775738D01*
X64379917Y-72961452D01*
X64441822Y-73209071D01*
X64503727Y-73332881D01*
X64627536Y-73456690D01*
X64813250Y-73518595D01*
X64937060Y-73518595D01*
X65122774Y-73456690D01*
X65184679Y-73394786D01*
X65184679Y-72961452D01*
X64937060Y-72961452D01*
X65741822Y-73518595D02*
X65741822Y-72218595D01*
X66484679Y-73518595D01*
X66484679Y-72218595D01*
X67103727Y-73518595D02*
X67103727Y-72218595D01*
X67413251Y-72218595D01*
X67598965Y-72280500D01*
X67722774Y-72404310D01*
X67784679Y-72528119D01*
X67846584Y-72775738D01*
X67846584Y-72961452D01*
X67784679Y-73209071D01*
X67722774Y-73332881D01*
X67598965Y-73456690D01*
X67413251Y-73518595D01*
X67103727Y-73518595D01*
X64342715Y-67492107D02*
X65333191Y-67492107D01*
X64837953Y-67987345D02*
X64837953Y-66996869D01*
X66571286Y-66687345D02*
X65952239Y-66687345D01*
X65890334Y-67306393D01*
X65952239Y-67244488D01*
X66076048Y-67182583D01*
X66385572Y-67182583D01*
X66509382Y-67244488D01*
X66571286Y-67306393D01*
X66633191Y-67430202D01*
X66633191Y-67739726D01*
X66571286Y-67863536D01*
X66509382Y-67925440D01*
X66385572Y-67987345D01*
X66076048Y-67987345D01*
X65952239Y-67925440D01*
X65890334Y-67863536D01*
X103140036Y-75022166D02*
X103201940Y-75084071D01*
X103263845Y-75269785D01*
X103263845Y-75393595D01*
X103201940Y-75579309D01*
X103078131Y-75703118D01*
X102954321Y-75765023D01*
X102706702Y-75826928D01*
X102520988Y-75826928D01*
X102273369Y-75765023D01*
X102149560Y-75703118D01*
X102025750Y-75579309D01*
X101963845Y-75393595D01*
X101963845Y-75269785D01*
X102025750Y-75084071D01*
X102087655Y-75022166D01*
X103201940Y-74526928D02*
X103263845Y-74341214D01*
X103263845Y-74031690D01*
X103201940Y-73907880D01*
X103140036Y-73845976D01*
X103016226Y-73784071D01*
X102892417Y-73784071D01*
X102768607Y-73845976D01*
X102706702Y-73907880D01*
X102644798Y-74031690D01*
X102582893Y-74279309D01*
X102520988Y-74403118D01*
X102459083Y-74465023D01*
X102335274Y-74526928D01*
X102211464Y-74526928D01*
X102087655Y-74465023D01*
X102025750Y-74403118D01*
X101963845Y-74279309D01*
X101963845Y-73969785D01*
X102025750Y-73784071D01*
X100826345Y-75268000D02*
X99526345Y-75268000D01*
X99526345Y-74958476D01*
X99588250Y-74772762D01*
X99712060Y-74648953D01*
X99835869Y-74587048D01*
X100083488Y-74525143D01*
X100269202Y-74525143D01*
X100516821Y-74587048D01*
X100640631Y-74648953D01*
X100764440Y-74772762D01*
X100826345Y-74958476D01*
X100826345Y-75268000D01*
X100826345Y-73968000D02*
X99526345Y-73968000D01*
X98013845Y-75920678D02*
X96713845Y-75920678D01*
X96713845Y-75611154D01*
X96775750Y-75425440D01*
X96899560Y-75301631D01*
X97023369Y-75239726D01*
X97270988Y-75177821D01*
X97456702Y-75177821D01*
X97704321Y-75239726D01*
X97828131Y-75301631D01*
X97951940Y-75425440D01*
X98013845Y-75611154D01*
X98013845Y-75920678D01*
X96713845Y-74373059D02*
X96713845Y-74125440D01*
X96775750Y-74001631D01*
X96899560Y-73877821D01*
X97147179Y-73815916D01*
X97580512Y-73815916D01*
X97828131Y-73877821D01*
X97951940Y-74001631D01*
X98013845Y-74125440D01*
X98013845Y-74373059D01*
X97951940Y-74496869D01*
X97828131Y-74620678D01*
X97580512Y-74682583D01*
X97147179Y-74682583D01*
X96899560Y-74620678D01*
X96775750Y-74496869D01*
X96713845Y-74373059D01*
X95452536Y-76141809D02*
X95514440Y-76203714D01*
X95576345Y-76389428D01*
X95576345Y-76513238D01*
X95514440Y-76698952D01*
X95390631Y-76822761D01*
X95266821Y-76884666D01*
X95019202Y-76946571D01*
X94833488Y-76946571D01*
X94585869Y-76884666D01*
X94462060Y-76822761D01*
X94338250Y-76698952D01*
X94276345Y-76513238D01*
X94276345Y-76389428D01*
X94338250Y-76203714D01*
X94400155Y-76141809D01*
X95576345Y-74965619D02*
X95576345Y-75584666D01*
X94276345Y-75584666D01*
X95576345Y-74532285D02*
X94276345Y-74532285D01*
X95576345Y-73789428D02*
X94833488Y-74346571D01*
X94276345Y-73789428D02*
X95019202Y-74532285D01*
X91900750Y-76452226D02*
X91838845Y-76576035D01*
X91838845Y-76761750D01*
X91900750Y-76947464D01*
X92024560Y-77071273D01*
X92148369Y-77133178D01*
X92395988Y-77195083D01*
X92581702Y-77195083D01*
X92829321Y-77133178D01*
X92953131Y-77071273D01*
X93076940Y-76947464D01*
X93138845Y-76761750D01*
X93138845Y-76637940D01*
X93076940Y-76452226D01*
X93015036Y-76390321D01*
X92581702Y-76390321D01*
X92581702Y-76637940D01*
X93138845Y-75833178D02*
X91838845Y-75833178D01*
X93138845Y-75090321D01*
X91838845Y-75090321D01*
X93138845Y-74471273D02*
X91838845Y-74471273D01*
X91838845Y-74161749D01*
X91900750Y-73976035D01*
X92024560Y-73852226D01*
X92148369Y-73790321D01*
X92395988Y-73728416D01*
X92581702Y-73728416D01*
X92829321Y-73790321D01*
X92953131Y-73852226D01*
X93076940Y-73976035D01*
X93138845Y-74161749D01*
X93138845Y-74471273D01*
X87487357Y-75919785D02*
X87487357Y-74929309D01*
X87982595Y-75424547D02*
X86992119Y-75424547D01*
X86682595Y-73691214D02*
X86682595Y-74310261D01*
X87301643Y-74372166D01*
X87239738Y-74310261D01*
X87177833Y-74186452D01*
X87177833Y-73876928D01*
X87239738Y-73753118D01*
X87301643Y-73691214D01*
X87425452Y-73629309D01*
X87734976Y-73629309D01*
X87858786Y-73691214D01*
X87920690Y-73753118D01*
X87982595Y-73876928D01*
X87982595Y-74186452D01*
X87920690Y-74310261D01*
X87858786Y-74372166D01*
X73677834Y-68238536D02*
X73615929Y-68300440D01*
X73430215Y-68362345D01*
X73306405Y-68362345D01*
X73120691Y-68300440D01*
X72996882Y-68176631D01*
X72934977Y-68052821D01*
X72873072Y-67805202D01*
X72873072Y-67619488D01*
X72934977Y-67371869D01*
X72996882Y-67248060D01*
X73120691Y-67124250D01*
X73306405Y-67062345D01*
X73430215Y-67062345D01*
X73615929Y-67124250D01*
X73677834Y-67186155D01*
X74173072Y-68300440D02*
X74358786Y-68362345D01*
X74668310Y-68362345D01*
X74792120Y-68300440D01*
X74854024Y-68238536D01*
X74915929Y-68114726D01*
X74915929Y-67990917D01*
X74854024Y-67867107D01*
X74792120Y-67805202D01*
X74668310Y-67743298D01*
X74420691Y-67681393D01*
X74296882Y-67619488D01*
X74234977Y-67557583D01*
X74173072Y-67433774D01*
X74173072Y-67309964D01*
X74234977Y-67186155D01*
X74296882Y-67124250D01*
X74420691Y-67062345D01*
X74730215Y-67062345D01*
X74915929Y-67124250D01*
X73525750Y-65737345D02*
X73525750Y-64437345D01*
X73835274Y-64437345D01*
X74020988Y-64499250D01*
X74144797Y-64623060D01*
X74206702Y-64746869D01*
X74268607Y-64994488D01*
X74268607Y-65180202D01*
X74206702Y-65427821D01*
X74144797Y-65551631D01*
X74020988Y-65675440D01*
X73835274Y-65737345D01*
X73525750Y-65737345D01*
X74825750Y-65737345D02*
X74825750Y-64437345D01*
X72873072Y-63299845D02*
X72873072Y-61999845D01*
X73182596Y-61999845D01*
X73368310Y-62061750D01*
X73492119Y-62185560D01*
X73554024Y-62309369D01*
X73615929Y-62556988D01*
X73615929Y-62742702D01*
X73554024Y-62990321D01*
X73492119Y-63114131D01*
X73368310Y-63237940D01*
X73182596Y-63299845D01*
X72873072Y-63299845D01*
X74420691Y-61999845D02*
X74668310Y-61999845D01*
X74792119Y-62061750D01*
X74915929Y-62185560D01*
X74977834Y-62433179D01*
X74977834Y-62866512D01*
X74915929Y-63114131D01*
X74792119Y-63237940D01*
X74668310Y-63299845D01*
X74420691Y-63299845D01*
X74296881Y-63237940D01*
X74173072Y-63114131D01*
X74111167Y-62866512D01*
X74111167Y-62433179D01*
X74173072Y-62185560D01*
X74296881Y-62061750D01*
X74420691Y-61999845D01*
X72651941Y-60644786D02*
X72590036Y-60706690D01*
X72404322Y-60768595D01*
X72280512Y-60768595D01*
X72094798Y-60706690D01*
X71970989Y-60582881D01*
X71909084Y-60459071D01*
X71847179Y-60211452D01*
X71847179Y-60025738D01*
X71909084Y-59778119D01*
X71970989Y-59654310D01*
X72094798Y-59530500D01*
X72280512Y-59468595D01*
X72404322Y-59468595D01*
X72590036Y-59530500D01*
X72651941Y-59592405D01*
X73828131Y-60768595D02*
X73209084Y-60768595D01*
X73209084Y-59468595D01*
X74261465Y-60768595D02*
X74261465Y-59468595D01*
X75004322Y-60768595D02*
X74447179Y-60025738D01*
X75004322Y-59468595D02*
X74261465Y-60211452D01*
D12*
X117814143Y-45318893D02*
X119528429Y-45318893D01*
X118296286Y-48318893D02*
X118671286Y-45318893D01*
X120153429Y-48318893D02*
X120403429Y-46318893D01*
X120528429Y-45318893D02*
X120367715Y-45461750D01*
X120492715Y-45604607D01*
X120653429Y-45461750D01*
X120528429Y-45318893D01*
X120492715Y-45604607D01*
X121832000Y-46318893D02*
X121582000Y-48318893D01*
X121796286Y-46604607D02*
X121957000Y-46461750D01*
X122260571Y-46318893D01*
X122689143Y-46318893D01*
X122957000Y-46461750D01*
X123064143Y-46747464D01*
X122867714Y-48318893D01*
X124260571Y-46318893D02*
X124724857Y-48318893D01*
X125689143Y-46318893D02*
X124724857Y-48318893D01*
X124349857Y-49033179D01*
X124189143Y-49176036D01*
X123885571Y-49318893D01*
X126582000Y-48318893D02*
X126957000Y-45318893D01*
X127689143Y-47461750D01*
X128957000Y-45318893D01*
X128582000Y-48318893D01*
X130439142Y-48318893D02*
X130171285Y-48176036D01*
X130046285Y-48033179D01*
X129939143Y-47747464D01*
X130046286Y-46890321D01*
X130224857Y-46604607D01*
X130385571Y-46461750D01*
X130689142Y-46318893D01*
X131117714Y-46318893D01*
X131385571Y-46461750D01*
X131510571Y-46604607D01*
X131617714Y-46890321D01*
X131510571Y-47747464D01*
X131331999Y-48033179D01*
X131171285Y-48176036D01*
X130867714Y-48318893D01*
X130439142Y-48318893D01*
X134010571Y-48318893D02*
X134385571Y-45318893D01*
X134028428Y-48176036D02*
X133724857Y-48318893D01*
X133153428Y-48318893D01*
X132885571Y-48176036D01*
X132760571Y-48033179D01*
X132653429Y-47747464D01*
X132760572Y-46890321D01*
X132939143Y-46604607D01*
X133099857Y-46461750D01*
X133403428Y-46318893D01*
X133974857Y-46318893D01*
X134242714Y-46461750D01*
X137599857Y-48176036D02*
X138010571Y-48318893D01*
X138724857Y-48318893D01*
X139028428Y-48176036D01*
X139189142Y-48033179D01*
X139367714Y-47747464D01*
X139403428Y-47461750D01*
X139296285Y-47176036D01*
X139171285Y-47033179D01*
X138903429Y-46890321D01*
X138349857Y-46747464D01*
X138082000Y-46604607D01*
X137957000Y-46461750D01*
X137849857Y-46176036D01*
X137885572Y-45890321D01*
X138064143Y-45604607D01*
X138224857Y-45461750D01*
X138528428Y-45318893D01*
X139242714Y-45318893D01*
X139653428Y-45461750D01*
X140832000Y-46318893D02*
X140457000Y-49318893D01*
X140814143Y-46461750D02*
X141117714Y-46318893D01*
X141689143Y-46318893D01*
X141957000Y-46461750D01*
X142082000Y-46604607D01*
X142189143Y-46890321D01*
X142082000Y-47747464D01*
X141903428Y-48033179D01*
X141742714Y-48176036D01*
X141439143Y-48318893D01*
X140867714Y-48318893D01*
X140599857Y-48176036D01*
X143724857Y-48318893D02*
X143457000Y-48176036D01*
X143349858Y-47890321D01*
X143671286Y-45318893D01*
X144867715Y-48318893D02*
X145117715Y-46318893D01*
X145242715Y-45318893D02*
X145082001Y-45461750D01*
X145207001Y-45604607D01*
X145367715Y-45461750D01*
X145242715Y-45318893D01*
X145207001Y-45604607D01*
X146117714Y-46318893D02*
X147260571Y-46318893D01*
X146671286Y-45318893D02*
X146349858Y-47890321D01*
X146457000Y-48176036D01*
X146724857Y-48318893D01*
X147010571Y-48318893D01*
D13*
X74175751Y-46459071D02*
X73461465Y-46459071D01*
X73461465Y-44959071D01*
X74675751Y-46459071D02*
X74675751Y-45459071D01*
X74675751Y-44959071D02*
X74604322Y-45030500D01*
X74675751Y-45101929D01*
X74747179Y-45030500D01*
X74675751Y-44959071D01*
X74675751Y-45101929D01*
X76032894Y-46387643D02*
X75890037Y-46459071D01*
X75604323Y-46459071D01*
X75461465Y-46387643D01*
X75390037Y-46316214D01*
X75318608Y-46173357D01*
X75318608Y-45744786D01*
X75390037Y-45601929D01*
X75461465Y-45530500D01*
X75604323Y-45459071D01*
X75890037Y-45459071D01*
X76032894Y-45530500D01*
X77247179Y-46387643D02*
X77104322Y-46459071D01*
X76818608Y-46459071D01*
X76675751Y-46387643D01*
X76604322Y-46244786D01*
X76604322Y-45673357D01*
X76675751Y-45530500D01*
X76818608Y-45459071D01*
X77104322Y-45459071D01*
X77247179Y-45530500D01*
X77318608Y-45673357D01*
X77318608Y-45816214D01*
X76604322Y-45959071D01*
X77961465Y-45459071D02*
X77961465Y-46459071D01*
X77961465Y-45601929D02*
X78032893Y-45530500D01*
X78175751Y-45459071D01*
X78390036Y-45459071D01*
X78532893Y-45530500D01*
X78604322Y-45673357D01*
X78604322Y-46459071D01*
X79247179Y-46387643D02*
X79390036Y-46459071D01*
X79675751Y-46459071D01*
X79818608Y-46387643D01*
X79890036Y-46244786D01*
X79890036Y-46173357D01*
X79818608Y-46030500D01*
X79675751Y-45959071D01*
X79461465Y-45959071D01*
X79318608Y-45887643D01*
X79247179Y-45744786D01*
X79247179Y-45673357D01*
X79318608Y-45530500D01*
X79461465Y-45459071D01*
X79675751Y-45459071D01*
X79818608Y-45530500D01*
X81104322Y-46387643D02*
X80961465Y-46459071D01*
X80675751Y-46459071D01*
X80532894Y-46387643D01*
X80461465Y-46244786D01*
X80461465Y-45673357D01*
X80532894Y-45530500D01*
X80675751Y-45459071D01*
X80961465Y-45459071D01*
X81104322Y-45530500D01*
X81175751Y-45673357D01*
X81175751Y-45816214D01*
X80461465Y-45959071D01*
X82461465Y-46459071D02*
X82461465Y-44959071D01*
X82461465Y-46387643D02*
X82318608Y-46459071D01*
X82032894Y-46459071D01*
X81890036Y-46387643D01*
X81818608Y-46316214D01*
X81747179Y-46173357D01*
X81747179Y-45744786D01*
X81818608Y-45601929D01*
X81890036Y-45530500D01*
X82032894Y-45459071D01*
X82318608Y-45459071D01*
X82461465Y-45530500D01*
X84961465Y-45459071D02*
X84961465Y-46459071D01*
X84318608Y-45459071D02*
X84318608Y-46244786D01*
X84390036Y-46387643D01*
X84532894Y-46459071D01*
X84747179Y-46459071D01*
X84890036Y-46387643D01*
X84961465Y-46316214D01*
X85675751Y-45459071D02*
X85675751Y-46459071D01*
X85675751Y-45601929D02*
X85747179Y-45530500D01*
X85890037Y-45459071D01*
X86104322Y-45459071D01*
X86247179Y-45530500D01*
X86318608Y-45673357D01*
X86318608Y-46459071D01*
X87675751Y-46459071D02*
X87675751Y-44959071D01*
X87675751Y-46387643D02*
X87532894Y-46459071D01*
X87247180Y-46459071D01*
X87104322Y-46387643D01*
X87032894Y-46316214D01*
X86961465Y-46173357D01*
X86961465Y-45744786D01*
X87032894Y-45601929D01*
X87104322Y-45530500D01*
X87247180Y-45459071D01*
X87532894Y-45459071D01*
X87675751Y-45530500D01*
X88961465Y-46387643D02*
X88818608Y-46459071D01*
X88532894Y-46459071D01*
X88390037Y-46387643D01*
X88318608Y-46244786D01*
X88318608Y-45673357D01*
X88390037Y-45530500D01*
X88532894Y-45459071D01*
X88818608Y-45459071D01*
X88961465Y-45530500D01*
X89032894Y-45673357D01*
X89032894Y-45816214D01*
X88318608Y-45959071D01*
X89675751Y-46459071D02*
X89675751Y-45459071D01*
X89675751Y-45744786D02*
X89747179Y-45601929D01*
X89818608Y-45530500D01*
X89961465Y-45459071D01*
X90104322Y-45459071D01*
X73890036Y-48866214D02*
X73818607Y-48937643D01*
X73604321Y-49009071D01*
X73461464Y-49009071D01*
X73247179Y-48937643D01*
X73104321Y-48794786D01*
X73032893Y-48651929D01*
X72961464Y-48366214D01*
X72961464Y-48151929D01*
X73032893Y-47866214D01*
X73104321Y-47723357D01*
X73247179Y-47580500D01*
X73461464Y-47509071D01*
X73604321Y-47509071D01*
X73818607Y-47580500D01*
X73890036Y-47651929D01*
X74532893Y-48223357D02*
X75032893Y-48223357D01*
X75247179Y-49009071D02*
X74532893Y-49009071D01*
X74532893Y-47509071D01*
X75247179Y-47509071D01*
X76747179Y-49009071D02*
X76247179Y-48294786D01*
X75890036Y-49009071D02*
X75890036Y-47509071D01*
X76461464Y-47509071D01*
X76604322Y-47580500D01*
X76675750Y-47651929D01*
X76747179Y-47794786D01*
X76747179Y-48009071D01*
X76675750Y-48151929D01*
X76604322Y-48223357D01*
X76461464Y-48294786D01*
X75890036Y-48294786D01*
X77390036Y-49009071D02*
X77390036Y-47509071D01*
X78247179Y-49009071D01*
X78247179Y-47509071D01*
X80390036Y-47509071D02*
X80675750Y-47509071D01*
X80818608Y-47580500D01*
X80961465Y-47723357D01*
X81032893Y-48009071D01*
X81032893Y-48509071D01*
X80961465Y-48794786D01*
X80818608Y-48937643D01*
X80675750Y-49009071D01*
X80390036Y-49009071D01*
X80247179Y-48937643D01*
X80104322Y-48794786D01*
X80032893Y-48509071D01*
X80032893Y-48009071D01*
X80104322Y-47723357D01*
X80247179Y-47580500D01*
X80390036Y-47509071D01*
X81675751Y-49009071D02*
X81675751Y-47509071D01*
X81675751Y-48223357D02*
X82532894Y-48223357D01*
X82532894Y-49009071D02*
X82532894Y-47509071D01*
X83961466Y-49009071D02*
X83247180Y-49009071D01*
X83247180Y-47509071D01*
X85461466Y-48009071D02*
X85818609Y-49009071D01*
X86175751Y-48009071D01*
X86747180Y-48866214D02*
X86818608Y-48937643D01*
X86747180Y-49009071D01*
X86675751Y-48937643D01*
X86747180Y-48866214D01*
X86747180Y-49009071D01*
X88247180Y-49009071D02*
X87390037Y-49009071D01*
X87818609Y-49009071D02*
X87818609Y-47509071D01*
X87675752Y-47723357D01*
X87532894Y-47866214D01*
X87390037Y-47937643D01*
X88890037Y-48866214D02*
X88961465Y-48937643D01*
X88890037Y-49009071D01*
X88818608Y-48937643D01*
X88890037Y-48866214D01*
X88890037Y-49009071D01*
X89532894Y-47651929D02*
X89604323Y-47580500D01*
X89747180Y-47509071D01*
X90104323Y-47509071D01*
X90247180Y-47580500D01*
X90318609Y-47651929D01*
X90390037Y-47794786D01*
X90390037Y-47937643D01*
X90318609Y-48151929D01*
X89461466Y-49009071D01*
X90390037Y-49009071D01*
D14*
X155963250Y-55650500D02*
X169933250Y-55650500D01*
X169933250Y-55650500D02*
X169933250Y-69620500D01*
X169933250Y-69620500D02*
X155963250Y-69620500D01*
X155963250Y-69620500D02*
X155963250Y-55650500D01*
X155963250Y-74681750D02*
X169933250Y-74681750D01*
X169933250Y-74681750D02*
X169933250Y-88651750D01*
X169933250Y-88651750D02*
X155963250Y-88651750D01*
X155963250Y-88651750D02*
X155963250Y-74681750D01*
X117900750Y-100088000D02*
X131870750Y-100088000D01*
X131870750Y-100088000D02*
X131870750Y-114058000D01*
X131870750Y-114058000D02*
X117900750Y-114058000D01*
X117900750Y-114058000D02*
X117900750Y-100088000D01*
X136932000Y-55650500D02*
X150902000Y-55650500D01*
X150902000Y-55650500D02*
X150902000Y-69620500D01*
X150902000Y-69620500D02*
X136932000Y-69620500D01*
X136932000Y-69620500D02*
X136932000Y-55650500D01*
X136932000Y-100088000D02*
X150902000Y-100088000D01*
X150902000Y-100088000D02*
X150902000Y-114058000D01*
X150902000Y-114058000D02*
X136932000Y-114058000D01*
X136932000Y-114058000D02*
X136932000Y-100088000D01*
X155963250Y-100088000D02*
X169933250Y-100088000D01*
X169933250Y-100088000D02*
X169933250Y-114058000D01*
X169933250Y-114058000D02*
X155963250Y-114058000D01*
X155963250Y-114058000D02*
X155963250Y-100088000D01*
X79838250Y-55650500D02*
X93808250Y-55650500D01*
X93808250Y-55650500D02*
X93808250Y-69620500D01*
X93808250Y-69620500D02*
X79838250Y-69620500D01*
X79838250Y-69620500D02*
X79838250Y-55650500D01*
X79838250Y-74681750D02*
X93808250Y-74681750D01*
X93808250Y-74681750D02*
X93808250Y-88651750D01*
X93808250Y-88651750D02*
X79838250Y-88651750D01*
X79838250Y-88651750D02*
X79838250Y-74681750D01*
X98869500Y-55650500D02*
X112839500Y-55650500D01*
X112839500Y-55650500D02*
X112839500Y-69620500D01*
X112839500Y-69620500D02*
X98869500Y-69620500D01*
X98869500Y-69620500D02*
X98869500Y-55650500D01*
X98869500Y-74681750D02*
X112839500Y-74681750D01*
X112839500Y-74681750D02*
X112839500Y-88651750D01*
X112839500Y-88651750D02*
X98869500Y-88651750D01*
X98869500Y-88651750D02*
X98869500Y-74681750D01*
X169912000Y-95365500D02*
G75*
G02X169912000Y-93365500I0J1000000D01*
G01*
X169912000Y-93365500D02*
X169912000Y-92115500D01*
X169912000Y-92115500D02*
X134232000Y-92115500D01*
X134232000Y-92115500D02*
X134232000Y-96615500D01*
X134232000Y-96615500D02*
X169912000Y-96615500D01*
X169912000Y-96615500D02*
X169912000Y-95365500D01*
X169972000Y-89115500D02*
X134172000Y-89115500D01*
X134172000Y-89115500D02*
X134172000Y-99615500D01*
X134172000Y-99615500D02*
X169972000Y-99615500D01*
X169972000Y-99615500D02*
X169972000Y-89115500D01*
X136722000Y-73946750D02*
X136722000Y-70226750D01*
X136722000Y-70226750D02*
X126702000Y-70226750D01*
X126702000Y-70226750D02*
X126702000Y-73946750D01*
X126702000Y-73946750D02*
X136722000Y-73946750D01*
X137952000Y-72086750D02*
X136722000Y-72086750D01*
X125472000Y-72086750D02*
X126702000Y-72086750D01*
X165784500Y-73946750D02*
X165784500Y-70226750D01*
X165784500Y-70226750D02*
X155764500Y-70226750D01*
X155764500Y-70226750D02*
X155764500Y-73946750D01*
X155764500Y-73946750D02*
X165784500Y-73946750D01*
X167014500Y-72086750D02*
X165784500Y-72086750D01*
X154534500Y-72086750D02*
X155764500Y-72086750D01*
X60564500Y-74090500D02*
X63224500Y-74090500D01*
X60564500Y-68950500D02*
X60564500Y-74090500D01*
X63224500Y-68950500D02*
X63224500Y-74090500D01*
X60564500Y-68950500D02*
X63224500Y-68950500D01*
X60564500Y-67680500D02*
X60564500Y-66350500D01*
X60564500Y-66350500D02*
X61894500Y-66350500D01*
X75752000Y-94519250D02*
X78412000Y-94519250D01*
X75752000Y-91919250D02*
X75752000Y-94519250D01*
X78412000Y-91919250D02*
X78412000Y-94519250D01*
X75752000Y-91919250D02*
X78412000Y-91919250D01*
X75752000Y-90649250D02*
X75752000Y-89319250D01*
X75752000Y-89319250D02*
X77082000Y-89319250D01*
X60564500Y-94519250D02*
X63224500Y-94519250D01*
X60564500Y-91919250D02*
X60564500Y-94519250D01*
X63224500Y-91919250D02*
X63224500Y-94519250D01*
X60564500Y-91919250D02*
X63224500Y-91919250D01*
X60564500Y-90649250D02*
X60564500Y-89319250D01*
X60564500Y-89319250D02*
X61894500Y-89319250D01*
D15*
X162875750Y-42599250D02*
X162875750Y-40899250D01*
X162875750Y-40899250D02*
X161175750Y-40899250D01*
X161175750Y-40899250D02*
X160425750Y-40899250D01*
X160425750Y-40899250D02*
X160425750Y-42199250D01*
X160425750Y-42199250D02*
X155925750Y-42199250D01*
X155925750Y-42199250D02*
X155925750Y-40899250D01*
X155925750Y-40899250D02*
X155175750Y-40899250D01*
X155175750Y-40899250D02*
X153875750Y-40899250D01*
X153875750Y-40899250D02*
X153875750Y-42649250D01*
X155175750Y-40899250D02*
X155175750Y-37899250D01*
X155175750Y-37899250D02*
X161175750Y-37899250D01*
X161175750Y-37899250D02*
X161175750Y-40899250D01*
X162875750Y-44999250D02*
X162875750Y-51899250D01*
X162875750Y-51899250D02*
X160875750Y-51899250D01*
X158525750Y-51899250D02*
X153875750Y-51899250D01*
X153875750Y-51899250D02*
X153875750Y-49799250D01*
X153875750Y-47899250D02*
X153875750Y-44849250D01*
D16*
X163875750Y-42399250D02*
G75*
G03X163875750Y-42399250I-200000J0D01*
G01*
D14*
X117900750Y-74681750D02*
X131870750Y-74681750D01*
X131870750Y-74681750D02*
X131870750Y-88651750D01*
X131870750Y-88651750D02*
X117900750Y-88651750D01*
X117900750Y-88651750D02*
X117900750Y-74681750D01*
X117900750Y-55650500D02*
X131870750Y-55650500D01*
X131870750Y-55650500D02*
X131870750Y-69620500D01*
X131870750Y-69620500D02*
X117900750Y-69620500D01*
X117900750Y-69620500D02*
X117900750Y-55650500D01*
X86003250Y-70850500D02*
X86003250Y-73510500D01*
X103843250Y-70850500D02*
X86003250Y-70850500D01*
X103843250Y-73510500D02*
X86003250Y-73510500D01*
X103843250Y-70850500D02*
X103843250Y-73510500D01*
X105113250Y-70850500D02*
X106443250Y-70850500D01*
X106443250Y-70850500D02*
X106443250Y-72180500D01*
X78412000Y-58730500D02*
X75752000Y-58730500D01*
X78412000Y-66410500D02*
X78412000Y-58730500D01*
X75752000Y-66410500D02*
X75752000Y-58730500D01*
X78412000Y-66410500D02*
X75752000Y-66410500D01*
X78412000Y-67680500D02*
X78412000Y-69010500D01*
X78412000Y-69010500D02*
X77082000Y-69010500D01*
X136932000Y-74681750D02*
X150902000Y-74681750D01*
X150902000Y-74681750D02*
X150902000Y-88651750D01*
X150902000Y-88651750D02*
X136932000Y-88651750D01*
X136932000Y-88651750D02*
X136932000Y-74681750D01*
D17*
X161614917Y-55166262D02*
X161757774Y-55213881D01*
X161995870Y-55213881D01*
X162091108Y-55166262D01*
X162138727Y-55118643D01*
X162186346Y-55023405D01*
X162186346Y-54928167D01*
X162138727Y-54832929D01*
X162091108Y-54785310D01*
X161995870Y-54737690D01*
X161805393Y-54690071D01*
X161710155Y-54642452D01*
X161662536Y-54594833D01*
X161614917Y-54499595D01*
X161614917Y-54404357D01*
X161662536Y-54309119D01*
X161710155Y-54261500D01*
X161805393Y-54213881D01*
X162043489Y-54213881D01*
X162186346Y-54261500D01*
X162519679Y-54213881D02*
X162757774Y-55213881D01*
X162948251Y-54499595D01*
X163138727Y-55213881D01*
X163376822Y-54213881D01*
X164281584Y-55213881D02*
X163710155Y-55213881D01*
X163995869Y-55213881D02*
X163995869Y-54213881D01*
X163900631Y-54356738D01*
X163805393Y-54451976D01*
X163710155Y-54499595D01*
X161614917Y-74197512D02*
X161757774Y-74245131D01*
X161995870Y-74245131D01*
X162091108Y-74197512D01*
X162138727Y-74149893D01*
X162186346Y-74054655D01*
X162186346Y-73959417D01*
X162138727Y-73864179D01*
X162091108Y-73816560D01*
X161995870Y-73768940D01*
X161805393Y-73721321D01*
X161710155Y-73673702D01*
X161662536Y-73626083D01*
X161614917Y-73530845D01*
X161614917Y-73435607D01*
X161662536Y-73340369D01*
X161710155Y-73292750D01*
X161805393Y-73245131D01*
X162043489Y-73245131D01*
X162186346Y-73292750D01*
X162519679Y-73245131D02*
X162757774Y-74245131D01*
X162948251Y-73530845D01*
X163138727Y-74245131D01*
X163376822Y-73245131D01*
X163710155Y-73340369D02*
X163757774Y-73292750D01*
X163853012Y-73245131D01*
X164091108Y-73245131D01*
X164186346Y-73292750D01*
X164233965Y-73340369D01*
X164281584Y-73435607D01*
X164281584Y-73530845D01*
X164233965Y-73673702D01*
X163662536Y-74245131D01*
X164281584Y-74245131D01*
X123552417Y-99603762D02*
X123695274Y-99651381D01*
X123933370Y-99651381D01*
X124028608Y-99603762D01*
X124076227Y-99556143D01*
X124123846Y-99460905D01*
X124123846Y-99365667D01*
X124076227Y-99270429D01*
X124028608Y-99222810D01*
X123933370Y-99175190D01*
X123742893Y-99127571D01*
X123647655Y-99079952D01*
X123600036Y-99032333D01*
X123552417Y-98937095D01*
X123552417Y-98841857D01*
X123600036Y-98746619D01*
X123647655Y-98699000D01*
X123742893Y-98651381D01*
X123980989Y-98651381D01*
X124123846Y-98699000D01*
X124457179Y-98651381D02*
X124695274Y-99651381D01*
X124885751Y-98937095D01*
X125076227Y-99651381D01*
X125314322Y-98651381D01*
X125600036Y-98651381D02*
X126219084Y-98651381D01*
X125885750Y-99032333D01*
X126028608Y-99032333D01*
X126123846Y-99079952D01*
X126171465Y-99127571D01*
X126219084Y-99222810D01*
X126219084Y-99460905D01*
X126171465Y-99556143D01*
X126123846Y-99603762D01*
X126028608Y-99651381D01*
X125742893Y-99651381D01*
X125647655Y-99603762D01*
X125600036Y-99556143D01*
X142583667Y-55166262D02*
X142726524Y-55213881D01*
X142964620Y-55213881D01*
X143059858Y-55166262D01*
X143107477Y-55118643D01*
X143155096Y-55023405D01*
X143155096Y-54928167D01*
X143107477Y-54832929D01*
X143059858Y-54785310D01*
X142964620Y-54737690D01*
X142774143Y-54690071D01*
X142678905Y-54642452D01*
X142631286Y-54594833D01*
X142583667Y-54499595D01*
X142583667Y-54404357D01*
X142631286Y-54309119D01*
X142678905Y-54261500D01*
X142774143Y-54213881D01*
X143012239Y-54213881D01*
X143155096Y-54261500D01*
X143488429Y-54213881D02*
X143726524Y-55213881D01*
X143917001Y-54499595D01*
X144107477Y-55213881D01*
X144345572Y-54213881D01*
X145155096Y-54547214D02*
X145155096Y-55213881D01*
X144917000Y-54166262D02*
X144678905Y-54880548D01*
X145297953Y-54880548D01*
X142583667Y-99603762D02*
X142726524Y-99651381D01*
X142964620Y-99651381D01*
X143059858Y-99603762D01*
X143107477Y-99556143D01*
X143155096Y-99460905D01*
X143155096Y-99365667D01*
X143107477Y-99270429D01*
X143059858Y-99222810D01*
X142964620Y-99175190D01*
X142774143Y-99127571D01*
X142678905Y-99079952D01*
X142631286Y-99032333D01*
X142583667Y-98937095D01*
X142583667Y-98841857D01*
X142631286Y-98746619D01*
X142678905Y-98699000D01*
X142774143Y-98651381D01*
X143012239Y-98651381D01*
X143155096Y-98699000D01*
X143488429Y-98651381D02*
X143726524Y-99651381D01*
X143917001Y-98937095D01*
X144107477Y-99651381D01*
X144345572Y-98651381D01*
X145155096Y-98651381D02*
X144964619Y-98651381D01*
X144869381Y-98699000D01*
X144821762Y-98746619D01*
X144726524Y-98889476D01*
X144678905Y-99079952D01*
X144678905Y-99460905D01*
X144726524Y-99556143D01*
X144774143Y-99603762D01*
X144869381Y-99651381D01*
X145059858Y-99651381D01*
X145155096Y-99603762D01*
X145202715Y-99556143D01*
X145250334Y-99460905D01*
X145250334Y-99222810D01*
X145202715Y-99127571D01*
X145155096Y-99079952D01*
X145059858Y-99032333D01*
X144869381Y-99032333D01*
X144774143Y-99079952D01*
X144726524Y-99127571D01*
X144678905Y-99222810D01*
X161614917Y-99603762D02*
X161757774Y-99651381D01*
X161995870Y-99651381D01*
X162091108Y-99603762D01*
X162138727Y-99556143D01*
X162186346Y-99460905D01*
X162186346Y-99365667D01*
X162138727Y-99270429D01*
X162091108Y-99222810D01*
X161995870Y-99175190D01*
X161805393Y-99127571D01*
X161710155Y-99079952D01*
X161662536Y-99032333D01*
X161614917Y-98937095D01*
X161614917Y-98841857D01*
X161662536Y-98746619D01*
X161710155Y-98699000D01*
X161805393Y-98651381D01*
X162043489Y-98651381D01*
X162186346Y-98699000D01*
X162519679Y-98651381D02*
X162757774Y-99651381D01*
X162948251Y-98937095D01*
X163138727Y-99651381D01*
X163376822Y-98651381D01*
X163805393Y-99651381D02*
X163995869Y-99651381D01*
X164091108Y-99603762D01*
X164138727Y-99556143D01*
X164233965Y-99413286D01*
X164281584Y-99222810D01*
X164281584Y-98841857D01*
X164233965Y-98746619D01*
X164186346Y-98699000D01*
X164091108Y-98651381D01*
X163900631Y-98651381D01*
X163805393Y-98699000D01*
X163757774Y-98746619D01*
X163710155Y-98841857D01*
X163710155Y-99079952D01*
X163757774Y-99175190D01*
X163805393Y-99222810D01*
X163900631Y-99270429D01*
X164091108Y-99270429D01*
X164186346Y-99222810D01*
X164233965Y-99175190D01*
X164281584Y-99079952D01*
X85013726Y-55166262D02*
X85156583Y-55213881D01*
X85394679Y-55213881D01*
X85489917Y-55166262D01*
X85537536Y-55118643D01*
X85585155Y-55023405D01*
X85585155Y-54928167D01*
X85537536Y-54832929D01*
X85489917Y-54785310D01*
X85394679Y-54737690D01*
X85204202Y-54690071D01*
X85108964Y-54642452D01*
X85061345Y-54594833D01*
X85013726Y-54499595D01*
X85013726Y-54404357D01*
X85061345Y-54309119D01*
X85108964Y-54261500D01*
X85204202Y-54213881D01*
X85442298Y-54213881D01*
X85585155Y-54261500D01*
X85918488Y-54213881D02*
X86156583Y-55213881D01*
X86347060Y-54499595D01*
X86537536Y-55213881D01*
X86775631Y-54213881D01*
X87680393Y-55213881D02*
X87108964Y-55213881D01*
X87394678Y-55213881D02*
X87394678Y-54213881D01*
X87299440Y-54356738D01*
X87204202Y-54451976D01*
X87108964Y-54499595D01*
X88299440Y-54213881D02*
X88394679Y-54213881D01*
X88489917Y-54261500D01*
X88537536Y-54309119D01*
X88585155Y-54404357D01*
X88632774Y-54594833D01*
X88632774Y-54832929D01*
X88585155Y-55023405D01*
X88537536Y-55118643D01*
X88489917Y-55166262D01*
X88394679Y-55213881D01*
X88299440Y-55213881D01*
X88204202Y-55166262D01*
X88156583Y-55118643D01*
X88108964Y-55023405D01*
X88061345Y-54832929D01*
X88061345Y-54594833D01*
X88108964Y-54404357D01*
X88156583Y-54309119D01*
X88204202Y-54261500D01*
X88299440Y-54213881D01*
X85013726Y-74197512D02*
X85156583Y-74245131D01*
X85394679Y-74245131D01*
X85489917Y-74197512D01*
X85537536Y-74149893D01*
X85585155Y-74054655D01*
X85585155Y-73959417D01*
X85537536Y-73864179D01*
X85489917Y-73816560D01*
X85394679Y-73768940D01*
X85204202Y-73721321D01*
X85108964Y-73673702D01*
X85061345Y-73626083D01*
X85013726Y-73530845D01*
X85013726Y-73435607D01*
X85061345Y-73340369D01*
X85108964Y-73292750D01*
X85204202Y-73245131D01*
X85442298Y-73245131D01*
X85585155Y-73292750D01*
X85918488Y-73245131D02*
X86156583Y-74245131D01*
X86347060Y-73530845D01*
X86537536Y-74245131D01*
X86775631Y-73245131D01*
X87680393Y-74245131D02*
X87108964Y-74245131D01*
X87394678Y-74245131D02*
X87394678Y-73245131D01*
X87299440Y-73387988D01*
X87204202Y-73483226D01*
X87108964Y-73530845D01*
X88632774Y-74245131D02*
X88061345Y-74245131D01*
X88347059Y-74245131D02*
X88347059Y-73245131D01*
X88251821Y-73387988D01*
X88156583Y-73483226D01*
X88061345Y-73530845D01*
X104044976Y-55166262D02*
X104187833Y-55213881D01*
X104425929Y-55213881D01*
X104521167Y-55166262D01*
X104568786Y-55118643D01*
X104616405Y-55023405D01*
X104616405Y-54928167D01*
X104568786Y-54832929D01*
X104521167Y-54785310D01*
X104425929Y-54737690D01*
X104235452Y-54690071D01*
X104140214Y-54642452D01*
X104092595Y-54594833D01*
X104044976Y-54499595D01*
X104044976Y-54404357D01*
X104092595Y-54309119D01*
X104140214Y-54261500D01*
X104235452Y-54213881D01*
X104473548Y-54213881D01*
X104616405Y-54261500D01*
X104949738Y-54213881D02*
X105187833Y-55213881D01*
X105378310Y-54499595D01*
X105568786Y-55213881D01*
X105806881Y-54213881D01*
X106711643Y-55213881D02*
X106140214Y-55213881D01*
X106425928Y-55213881D02*
X106425928Y-54213881D01*
X106330690Y-54356738D01*
X106235452Y-54451976D01*
X106140214Y-54499595D01*
X107044976Y-54213881D02*
X107664024Y-54213881D01*
X107330690Y-54594833D01*
X107473548Y-54594833D01*
X107568786Y-54642452D01*
X107616405Y-54690071D01*
X107664024Y-54785310D01*
X107664024Y-55023405D01*
X107616405Y-55118643D01*
X107568786Y-55166262D01*
X107473548Y-55213881D01*
X107187833Y-55213881D01*
X107092595Y-55166262D01*
X107044976Y-55118643D01*
X104044976Y-74197512D02*
X104187833Y-74245131D01*
X104425929Y-74245131D01*
X104521167Y-74197512D01*
X104568786Y-74149893D01*
X104616405Y-74054655D01*
X104616405Y-73959417D01*
X104568786Y-73864179D01*
X104521167Y-73816560D01*
X104425929Y-73768940D01*
X104235452Y-73721321D01*
X104140214Y-73673702D01*
X104092595Y-73626083D01*
X104044976Y-73530845D01*
X104044976Y-73435607D01*
X104092595Y-73340369D01*
X104140214Y-73292750D01*
X104235452Y-73245131D01*
X104473548Y-73245131D01*
X104616405Y-73292750D01*
X104949738Y-73245131D02*
X105187833Y-74245131D01*
X105378310Y-73530845D01*
X105568786Y-74245131D01*
X105806881Y-73245131D01*
X106711643Y-74245131D02*
X106140214Y-74245131D01*
X106425928Y-74245131D02*
X106425928Y-73245131D01*
X106330690Y-73387988D01*
X106235452Y-73483226D01*
X106140214Y-73530845D01*
X107568786Y-73578464D02*
X107568786Y-74245131D01*
X107330690Y-73197512D02*
X107092595Y-73911798D01*
X107711643Y-73911798D01*
D18*
X164725835Y-43579746D02*
X165069120Y-43579746D01*
X165137777Y-43602632D01*
X165183548Y-43648403D01*
X165206433Y-43717060D01*
X165206433Y-43762831D01*
X164725835Y-43144919D02*
X164725835Y-43236462D01*
X164748721Y-43282233D01*
X164771607Y-43305119D01*
X164840263Y-43350890D01*
X164931806Y-43373776D01*
X165114891Y-43373776D01*
X165160662Y-43350890D01*
X165183548Y-43328004D01*
X165206433Y-43282233D01*
X165206433Y-43190691D01*
X165183548Y-43144919D01*
X165160662Y-43122034D01*
X165114891Y-43099148D01*
X165000463Y-43099148D01*
X164954692Y-43122034D01*
X164931806Y-43144919D01*
X164908920Y-43190691D01*
X164908920Y-43282233D01*
X164931806Y-43328004D01*
X164954692Y-43350890D01*
X165000463Y-43373776D01*
D17*
X123076226Y-74197512D02*
X123219083Y-74245131D01*
X123457179Y-74245131D01*
X123552417Y-74197512D01*
X123600036Y-74149893D01*
X123647655Y-74054655D01*
X123647655Y-73959417D01*
X123600036Y-73864179D01*
X123552417Y-73816560D01*
X123457179Y-73768940D01*
X123266702Y-73721321D01*
X123171464Y-73673702D01*
X123123845Y-73626083D01*
X123076226Y-73530845D01*
X123076226Y-73435607D01*
X123123845Y-73340369D01*
X123171464Y-73292750D01*
X123266702Y-73245131D01*
X123504798Y-73245131D01*
X123647655Y-73292750D01*
X123980988Y-73245131D02*
X124219083Y-74245131D01*
X124409560Y-73530845D01*
X124600036Y-74245131D01*
X124838131Y-73245131D01*
X125742893Y-74245131D02*
X125171464Y-74245131D01*
X125457178Y-74245131D02*
X125457178Y-73245131D01*
X125361940Y-73387988D01*
X125266702Y-73483226D01*
X125171464Y-73530845D01*
X126123845Y-73340369D02*
X126171464Y-73292750D01*
X126266702Y-73245131D01*
X126504798Y-73245131D01*
X126600036Y-73292750D01*
X126647655Y-73340369D01*
X126695274Y-73435607D01*
X126695274Y-73530845D01*
X126647655Y-73673702D01*
X126076226Y-74245131D01*
X126695274Y-74245131D01*
X123076226Y-55166262D02*
X123219083Y-55213881D01*
X123457179Y-55213881D01*
X123552417Y-55166262D01*
X123600036Y-55118643D01*
X123647655Y-55023405D01*
X123647655Y-54928167D01*
X123600036Y-54832929D01*
X123552417Y-54785310D01*
X123457179Y-54737690D01*
X123266702Y-54690071D01*
X123171464Y-54642452D01*
X123123845Y-54594833D01*
X123076226Y-54499595D01*
X123076226Y-54404357D01*
X123123845Y-54309119D01*
X123171464Y-54261500D01*
X123266702Y-54213881D01*
X123504798Y-54213881D01*
X123647655Y-54261500D01*
X123980988Y-54213881D02*
X124219083Y-55213881D01*
X124409560Y-54499595D01*
X124600036Y-55213881D01*
X124838131Y-54213881D01*
X125742893Y-55213881D02*
X125171464Y-55213881D01*
X125457178Y-55213881D02*
X125457178Y-54213881D01*
X125361940Y-54356738D01*
X125266702Y-54451976D01*
X125171464Y-54499595D01*
X126647655Y-54213881D02*
X126171464Y-54213881D01*
X126123845Y-54690071D01*
X126171464Y-54642452D01*
X126266702Y-54594833D01*
X126504798Y-54594833D01*
X126600036Y-54642452D01*
X126647655Y-54690071D01*
X126695274Y-54785310D01*
X126695274Y-55023405D01*
X126647655Y-55118643D01*
X126600036Y-55166262D01*
X126504798Y-55213881D01*
X126266702Y-55213881D01*
X126171464Y-55166262D01*
X126123845Y-55118643D01*
X142583667Y-74197512D02*
X142726524Y-74245131D01*
X142964620Y-74245131D01*
X143059858Y-74197512D01*
X143107477Y-74149893D01*
X143155096Y-74054655D01*
X143155096Y-73959417D01*
X143107477Y-73864179D01*
X143059858Y-73816560D01*
X142964620Y-73768940D01*
X142774143Y-73721321D01*
X142678905Y-73673702D01*
X142631286Y-73626083D01*
X142583667Y-73530845D01*
X142583667Y-73435607D01*
X142631286Y-73340369D01*
X142678905Y-73292750D01*
X142774143Y-73245131D01*
X143012239Y-73245131D01*
X143155096Y-73292750D01*
X143488429Y-73245131D02*
X143726524Y-74245131D01*
X143917001Y-73530845D01*
X144107477Y-74245131D01*
X144345572Y-73245131D01*
X145202715Y-73245131D02*
X144726524Y-73245131D01*
X144678905Y-73721321D01*
X144726524Y-73673702D01*
X144821762Y-73626083D01*
X145059858Y-73626083D01*
X145155096Y-73673702D01*
X145202715Y-73721321D01*
X145250334Y-73816560D01*
X145250334Y-74054655D01*
X145202715Y-74149893D01*
X145155096Y-74197512D01*
X145059858Y-74245131D01*
X144821762Y-74245131D01*
X144726524Y-74197512D01*
X144678905Y-74149893D01*
M02*
