M48
INCH,TZ
T1C0.043
T2C0.067
T3C0.118
T4C0.157
%
G90
G05
T1
X6.2274Y-1.7244
X6.2274Y-1.9212
T2
X3.2182Y-2.466
X3.2182Y-3.2152
X3.6182Y-2.466
X3.6182Y-3.2152
X3.9675Y-2.466
X3.9675Y-3.2152
X4.3675Y-2.466
X4.3675Y-3.2152
X4.7168Y-2.466
X4.7168Y-3.2152
X4.7168Y-4.2155
X5.1168Y-2.466
X5.1168Y-3.2152
X5.1168Y-4.2155
X5.466Y-2.466
X5.466Y-3.2152
X5.466Y-4.2155
X5.866Y-2.466
X5.866Y-3.2152
X5.866Y-4.2155
X6.2153Y-2.466
X6.2153Y-3.2152
X6.2153Y-4.2155
X6.6153Y-2.466
X6.6153Y-3.2152
X6.6153Y-4.2155
T3
X2.4146Y-1.7788
X2.415Y-4.72
X4.54Y-3.125
X6.67Y-4.72
X6.6703Y-1.7788
T4
X3.4182Y-2.466
X3.4182Y-3.2152
X4.1675Y-2.466
X4.1675Y-3.2152
X4.9168Y-2.466
X4.9168Y-3.2152
X4.9168Y-4.2155
X5.666Y-2.466
X5.666Y-3.2152
X5.666Y-4.2155
X6.4153Y-2.466
X6.4153Y-3.2152
X6.4153Y-4.2155
T0
M30
