G04 #@! TF.FileFunction,Soldermask,Bot*
%FSLAX46Y46*%
G04 Gerber Fmt 4.6, Leading zero omitted, Abs format (unit mm)*
G04 Created by KiCad (PCBNEW 4.0.7) date 03/10/21 14:25:49*
%MOMM*%
%LPD*%
G01*
G04 APERTURE LIST*
%ADD10C,0.100000*%
%ADD11C,3.000000*%
%ADD12C,2.200000*%
%ADD13C,4.000000*%
%ADD14C,1.700000*%
%ADD15R,1.600000X2.400000*%
%ADD16O,1.600000X2.400000*%
%ADD17C,2.400000*%
%ADD18O,2.400000X2.400000*%
%ADD19R,1.700000X1.700000*%
%ADD20O,1.700000X1.700000*%
%ADD21R,1.650000X1.650000*%
%ADD22C,1.650000*%
%ADD23C,1.100000*%
G04 APERTURE END LIST*
D10*
D11*
X61341000Y-119888000D03*
X169418000Y-119888000D03*
X61332000Y-45180500D03*
X115316000Y-79375000D03*
D12*
X165488250Y-57555500D03*
X159138250Y-60095500D03*
D13*
X162948250Y-62635500D03*
D14*
X157868250Y-62635500D03*
X168028250Y-62635500D03*
D12*
X165488250Y-76586750D03*
X159138250Y-79126750D03*
D13*
X162948250Y-81666750D03*
D14*
X157868250Y-81666750D03*
X168028250Y-81666750D03*
D12*
X127425750Y-101993000D03*
X121075750Y-104533000D03*
D13*
X124885750Y-107073000D03*
D14*
X119805750Y-107073000D03*
X129965750Y-107073000D03*
D12*
X146457000Y-57555500D03*
X140107000Y-60095500D03*
D13*
X143917000Y-62635500D03*
D14*
X138837000Y-62635500D03*
X148997000Y-62635500D03*
D12*
X146457000Y-101993000D03*
X140107000Y-104533000D03*
D13*
X143917000Y-107073000D03*
D14*
X138837000Y-107073000D03*
X148997000Y-107073000D03*
D12*
X165488250Y-101993000D03*
X159138250Y-104533000D03*
D13*
X162948250Y-107073000D03*
D14*
X157868250Y-107073000D03*
X168028250Y-107073000D03*
D12*
X89363250Y-57555500D03*
X83013250Y-60095500D03*
D13*
X86823250Y-62635500D03*
D14*
X81743250Y-62635500D03*
X91903250Y-62635500D03*
D12*
X89363250Y-76586750D03*
X83013250Y-79126750D03*
D13*
X86823250Y-81666750D03*
D14*
X81743250Y-81666750D03*
X91903250Y-81666750D03*
D12*
X108394500Y-57555500D03*
X102044500Y-60095500D03*
D13*
X105854500Y-62635500D03*
D14*
X100774500Y-62635500D03*
X110934500Y-62635500D03*
D12*
X108394500Y-76586750D03*
X102044500Y-79126750D03*
D13*
X105854500Y-81666750D03*
D14*
X100774500Y-81666750D03*
X110934500Y-81666750D03*
D15*
X168582000Y-90555500D03*
D16*
X135562000Y-98175500D03*
X166042000Y-90555500D03*
X138102000Y-98175500D03*
X163502000Y-90555500D03*
X140642000Y-98175500D03*
X160962000Y-90555500D03*
X143182000Y-98175500D03*
X158422000Y-90555500D03*
X145722000Y-98175500D03*
X155882000Y-90555500D03*
X148262000Y-98175500D03*
X153342000Y-90555500D03*
X150802000Y-98175500D03*
X150802000Y-90555500D03*
X153342000Y-98175500D03*
X148262000Y-90555500D03*
X155882000Y-98175500D03*
X145722000Y-90555500D03*
X158422000Y-98175500D03*
X143182000Y-90555500D03*
X160962000Y-98175500D03*
X140642000Y-90555500D03*
X163502000Y-98175500D03*
X138102000Y-90555500D03*
X166042000Y-98175500D03*
X135562000Y-90555500D03*
X168582000Y-98175500D03*
D11*
X169425750Y-45180500D03*
D17*
X139332000Y-72086750D03*
D18*
X124092000Y-72086750D03*
D17*
X168394500Y-72086750D03*
D18*
X153154500Y-72086750D03*
D19*
X61894500Y-67680500D03*
D20*
X61894500Y-70220500D03*
X61894500Y-72760500D03*
D19*
X77082000Y-90649250D03*
D20*
X77082000Y-93189250D03*
D19*
X61894500Y-90649250D03*
D20*
X61894500Y-93189250D03*
D21*
X162975750Y-43799250D03*
D22*
X154575750Y-48799250D03*
X159775750Y-51899250D03*
X153675750Y-43799250D03*
D23*
X158175750Y-43799250D03*
X158175750Y-48799250D03*
D12*
X127425750Y-76586750D03*
X121075750Y-79126750D03*
D13*
X124885750Y-81666750D03*
D14*
X119805750Y-81666750D03*
X129965750Y-81666750D03*
D12*
X127425750Y-57555500D03*
X121075750Y-60095500D03*
D13*
X124885750Y-62635500D03*
D14*
X119805750Y-62635500D03*
X129965750Y-62635500D03*
D19*
X105113250Y-72180500D03*
D20*
X102573250Y-72180500D03*
X100033250Y-72180500D03*
X97493250Y-72180500D03*
X94953250Y-72180500D03*
X92413250Y-72180500D03*
X89873250Y-72180500D03*
X87333250Y-72180500D03*
D19*
X77082000Y-67680500D03*
D20*
X77082000Y-65140500D03*
X77082000Y-62600500D03*
X77082000Y-60060500D03*
D12*
X146457000Y-76586750D03*
X140107000Y-79126750D03*
D13*
X143917000Y-81666750D03*
D14*
X138837000Y-81666750D03*
X148997000Y-81666750D03*
M02*
