G04 #@! TF.FileFunction,Soldermask,Bot*
%FSLAX46Y46*%
G04 Gerber Fmt 4.6, Leading zero omitted, Abs format (unit mm)*
G04 Created by KiCad (PCBNEW 4.0.7) date 05/19/22 13:13:44*
%MOMM*%
%LPD*%
G01*
G04 APERTURE LIST*
%ADD10C,0.100000*%
%ADD11C,3.000000*%
%ADD12R,1.700000X1.700000*%
%ADD13O,1.700000X1.700000*%
%ADD14R,1.600000X2.400000*%
%ADD15O,1.600000X2.400000*%
%ADD16C,2.400000*%
%ADD17O,2.400000X2.400000*%
%ADD18C,2.200000*%
%ADD19C,4.000000*%
%ADD20C,1.700000*%
G04 APERTURE END LIST*
D10*
D11*
X71567750Y-116889250D03*
X240538000Y-133858000D03*
X45974000Y-133858000D03*
X240538000Y-64770000D03*
X143256000Y-64770000D03*
X143256000Y-133858000D03*
X45974000Y-64770000D03*
X181315750Y-93703500D03*
X105284500Y-93703500D03*
D12*
X191065750Y-124172250D03*
D13*
X191065750Y-126712250D03*
X191065750Y-129252250D03*
D14*
X150622000Y-104902000D03*
D15*
X117602000Y-112522000D03*
X148082000Y-104902000D03*
X120142000Y-112522000D03*
X145542000Y-104902000D03*
X122682000Y-112522000D03*
X143002000Y-104902000D03*
X125222000Y-112522000D03*
X140462000Y-104902000D03*
X127762000Y-112522000D03*
X137922000Y-104902000D03*
X130302000Y-112522000D03*
X135382000Y-104902000D03*
X132842000Y-112522000D03*
X132842000Y-104902000D03*
X135382000Y-112522000D03*
X130302000Y-104902000D03*
X137922000Y-112522000D03*
X127762000Y-104902000D03*
X140462000Y-112522000D03*
X125222000Y-104902000D03*
X143002000Y-112522000D03*
X122682000Y-104902000D03*
X145542000Y-112522000D03*
X120142000Y-104902000D03*
X148082000Y-112522000D03*
X117602000Y-104902000D03*
X150622000Y-112522000D03*
D12*
X44704000Y-124460000D03*
D13*
X47244000Y-124460000D03*
X49784000Y-124460000D03*
X52324000Y-124460000D03*
X54864000Y-124460000D03*
X57404000Y-124460000D03*
X59944000Y-124460000D03*
X62484000Y-124460000D03*
X65024000Y-124460000D03*
D12*
X49784000Y-109220000D03*
D13*
X52324000Y-109220000D03*
X54864000Y-109220000D03*
X57404000Y-109220000D03*
X59944000Y-109220000D03*
X62484000Y-109220000D03*
X65024000Y-109220000D03*
X67564000Y-109220000D03*
X70104000Y-109220000D03*
D16*
X56159500Y-86859750D03*
D17*
X71399500Y-86859750D03*
D16*
X77216000Y-86868000D03*
D17*
X92456000Y-86868000D03*
D18*
X79222000Y-91172250D03*
X72872000Y-93712250D03*
D19*
X76682000Y-96252250D03*
D20*
X71602000Y-96252250D03*
X81762000Y-96252250D03*
D18*
X60190750Y-91172250D03*
X53840750Y-93712250D03*
D19*
X57650750Y-96252250D03*
D20*
X52570750Y-96252250D03*
X62730750Y-96252250D03*
D18*
X98253250Y-91172250D03*
X91903250Y-93712250D03*
D19*
X95713250Y-96252250D03*
D20*
X90633250Y-96252250D03*
X100793250Y-96252250D03*
D18*
X117284500Y-91172250D03*
X110934500Y-93712250D03*
D19*
X114744500Y-96252250D03*
D20*
X109664500Y-96252250D03*
X119824500Y-96252250D03*
D18*
X136315750Y-91172250D03*
X129965750Y-93712250D03*
D19*
X133775750Y-96252250D03*
D20*
X128695750Y-96252250D03*
X138855750Y-96252250D03*
D18*
X155347000Y-91172250D03*
X148997000Y-93712250D03*
D19*
X152807000Y-96252250D03*
D20*
X147727000Y-96252250D03*
X157887000Y-96252250D03*
D18*
X174378250Y-91172250D03*
X168028250Y-93712250D03*
D19*
X171838250Y-96252250D03*
D20*
X166758250Y-96252250D03*
X176918250Y-96252250D03*
D18*
X193409500Y-91172250D03*
X187059500Y-93712250D03*
D19*
X190869500Y-96252250D03*
D20*
X185789500Y-96252250D03*
X195949500Y-96252250D03*
D18*
X212440750Y-91172250D03*
X206090750Y-93712250D03*
D19*
X209900750Y-96252250D03*
D20*
X204820750Y-96252250D03*
X214980750Y-96252250D03*
D18*
X231565750Y-72141000D03*
X225215750Y-74681000D03*
D19*
X229025750Y-77221000D03*
D20*
X223945750Y-77221000D03*
X234105750Y-77221000D03*
D18*
X231472000Y-91172250D03*
X225122000Y-93712250D03*
D19*
X228932000Y-96252250D03*
D20*
X223852000Y-96252250D03*
X234012000Y-96252250D03*
D18*
X98253250Y-116109750D03*
X91903250Y-118649750D03*
D19*
X95713250Y-121189750D03*
D20*
X90633250Y-121189750D03*
X100793250Y-121189750D03*
D18*
X117284500Y-116109750D03*
X110934500Y-118649750D03*
D19*
X114744500Y-121189750D03*
D20*
X109664500Y-121189750D03*
X119824500Y-121189750D03*
D18*
X136315750Y-116109750D03*
X129965750Y-118649750D03*
D19*
X133775750Y-121189750D03*
D20*
X128695750Y-121189750D03*
X138855750Y-121189750D03*
D18*
X155347000Y-116109750D03*
X148997000Y-118649750D03*
D19*
X152807000Y-121189750D03*
D20*
X147727000Y-121189750D03*
X157887000Y-121189750D03*
D18*
X174378250Y-116109750D03*
X168028250Y-118649750D03*
D19*
X171838250Y-121189750D03*
D20*
X166758250Y-121189750D03*
X176918250Y-121189750D03*
D18*
X60190750Y-72141000D03*
X53840750Y-74681000D03*
D19*
X57650750Y-77221000D03*
D20*
X52570750Y-77221000D03*
X62730750Y-77221000D03*
D18*
X79222000Y-72141000D03*
X72872000Y-74681000D03*
D19*
X76682000Y-77221000D03*
D20*
X71602000Y-77221000D03*
X81762000Y-77221000D03*
D18*
X98253250Y-72141000D03*
X91903250Y-74681000D03*
D19*
X95713250Y-77221000D03*
D20*
X90633250Y-77221000D03*
X100793250Y-77221000D03*
D18*
X117284500Y-72141000D03*
X110934500Y-74681000D03*
D19*
X114744500Y-77221000D03*
D20*
X109664500Y-77221000D03*
X119824500Y-77221000D03*
D18*
X136315750Y-72141000D03*
X129965750Y-74681000D03*
D19*
X133775750Y-77221000D03*
D20*
X128695750Y-77221000D03*
X138855750Y-77221000D03*
D18*
X155347000Y-72141000D03*
X148997000Y-74681000D03*
D19*
X152807000Y-77221000D03*
D20*
X147727000Y-77221000D03*
X157887000Y-77221000D03*
D18*
X174378250Y-72141000D03*
X168028250Y-74681000D03*
D19*
X171838250Y-77221000D03*
D20*
X166758250Y-77221000D03*
X176918250Y-77221000D03*
D18*
X193409500Y-72141000D03*
X187059500Y-74681000D03*
D19*
X190869500Y-77221000D03*
D20*
X185789500Y-77221000D03*
X195949500Y-77221000D03*
D18*
X212440750Y-72141000D03*
X206090750Y-74681000D03*
D19*
X209900750Y-77221000D03*
D20*
X204820750Y-77221000D03*
X214980750Y-77221000D03*
D12*
X195190750Y-124172250D03*
D13*
X195190750Y-126712250D03*
X195190750Y-129252250D03*
D12*
X199315750Y-124172250D03*
D13*
X199315750Y-126712250D03*
X199315750Y-129252250D03*
M02*
