G04 #@! TF.FileFunction,Copper,L1,Top,Signal*
%FSLAX46Y46*%
G04 Gerber Fmt 4.6, Leading zero omitted, Abs format (unit mm)*
G04 Created by KiCad (PCBNEW 4.0.7) date 05/19/22 13:13:44*
%MOMM*%
%LPD*%
G01*
G04 APERTURE LIST*
%ADD10C,0.100000*%
%ADD11R,1.700000X1.700000*%
%ADD12O,1.700000X1.700000*%
%ADD13R,1.600000X2.400000*%
%ADD14O,1.600000X2.400000*%
%ADD15C,2.400000*%
%ADD16O,2.400000X2.400000*%
%ADD17C,2.200000*%
%ADD18C,0.600000*%
%ADD19C,0.250000*%
G04 APERTURE END LIST*
D10*
D11*
X191065750Y-124172250D03*
D12*
X191065750Y-126712250D03*
X191065750Y-129252250D03*
D13*
X150622000Y-104902000D03*
D14*
X117602000Y-112522000D03*
X148082000Y-104902000D03*
X120142000Y-112522000D03*
X145542000Y-104902000D03*
X122682000Y-112522000D03*
X143002000Y-104902000D03*
X125222000Y-112522000D03*
X140462000Y-104902000D03*
X127762000Y-112522000D03*
X137922000Y-104902000D03*
X130302000Y-112522000D03*
X135382000Y-104902000D03*
X132842000Y-112522000D03*
X132842000Y-104902000D03*
X135382000Y-112522000D03*
X130302000Y-104902000D03*
X137922000Y-112522000D03*
X127762000Y-104902000D03*
X140462000Y-112522000D03*
X125222000Y-104902000D03*
X143002000Y-112522000D03*
X122682000Y-104902000D03*
X145542000Y-112522000D03*
X120142000Y-104902000D03*
X148082000Y-112522000D03*
X117602000Y-104902000D03*
X150622000Y-112522000D03*
D11*
X44704000Y-124460000D03*
D12*
X47244000Y-124460000D03*
X49784000Y-124460000D03*
X52324000Y-124460000D03*
X54864000Y-124460000D03*
X57404000Y-124460000D03*
X59944000Y-124460000D03*
X62484000Y-124460000D03*
X65024000Y-124460000D03*
D11*
X49784000Y-109220000D03*
D12*
X52324000Y-109220000D03*
X54864000Y-109220000D03*
X57404000Y-109220000D03*
X59944000Y-109220000D03*
X62484000Y-109220000D03*
X65024000Y-109220000D03*
X67564000Y-109220000D03*
X70104000Y-109220000D03*
D15*
X56159500Y-86859750D03*
D16*
X71399500Y-86859750D03*
D15*
X77216000Y-86868000D03*
D16*
X92456000Y-86868000D03*
D17*
X79222000Y-91172250D03*
X72872000Y-93712250D03*
X60190750Y-91172250D03*
X53840750Y-93712250D03*
X98253250Y-91172250D03*
X91903250Y-93712250D03*
X117284500Y-91172250D03*
X110934500Y-93712250D03*
X136315750Y-91172250D03*
X129965750Y-93712250D03*
X155347000Y-91172250D03*
X148997000Y-93712250D03*
X174378250Y-91172250D03*
X168028250Y-93712250D03*
X193409500Y-91172250D03*
X187059500Y-93712250D03*
X212440750Y-91172250D03*
X206090750Y-93712250D03*
X231565750Y-72141000D03*
X225215750Y-74681000D03*
X231472000Y-91172250D03*
X225122000Y-93712250D03*
X98253250Y-116109750D03*
X91903250Y-118649750D03*
X117284500Y-116109750D03*
X110934500Y-118649750D03*
X136315750Y-116109750D03*
X129965750Y-118649750D03*
X155347000Y-116109750D03*
X148997000Y-118649750D03*
X174378250Y-116109750D03*
X168028250Y-118649750D03*
X60190750Y-72141000D03*
X53840750Y-74681000D03*
X79222000Y-72141000D03*
X72872000Y-74681000D03*
X98253250Y-72141000D03*
X91903250Y-74681000D03*
X117284500Y-72141000D03*
X110934500Y-74681000D03*
X136315750Y-72141000D03*
X129965750Y-74681000D03*
X155347000Y-72141000D03*
X148997000Y-74681000D03*
X174378250Y-72141000D03*
X168028250Y-74681000D03*
X193409500Y-72141000D03*
X187059500Y-74681000D03*
X212440750Y-72141000D03*
X206090750Y-74681000D03*
D11*
X195190750Y-124172250D03*
D12*
X195190750Y-126712250D03*
X195190750Y-129252250D03*
D11*
X199315750Y-124172250D03*
D12*
X199315750Y-126712250D03*
X199315750Y-129252250D03*
D18*
X94784500Y-102141000D03*
X107534500Y-104766000D03*
X132659500Y-86016000D03*
X90190750Y-128391000D03*
X70409500Y-124266000D03*
X107347000Y-109172250D03*
X146065750Y-91172250D03*
X174378250Y-108797250D03*
X194440750Y-108891000D03*
X212534500Y-101016000D03*
X231378250Y-107203500D03*
X98909500Y-128484750D03*
X140440750Y-128484750D03*
X117753250Y-125672250D03*
X142972000Y-125672250D03*
X73034500Y-129891000D03*
X193315750Y-87516000D03*
X198472000Y-99328500D03*
D19*
X52324000Y-109220000D02*
X52324000Y-99507750D01*
X58315750Y-91641000D02*
X59722000Y-91641000D01*
X54472000Y-95484750D02*
X58315750Y-91641000D01*
X54472000Y-97359750D02*
X54472000Y-95484750D01*
X52324000Y-99507750D02*
X54472000Y-97359750D01*
X59722000Y-91641000D02*
X60190750Y-91172250D01*
X98815750Y-98109750D02*
X98815750Y-91734750D01*
X94784500Y-102141000D02*
X98815750Y-98109750D01*
X98815750Y-91734750D02*
X98253250Y-91172250D01*
X115972000Y-91172250D02*
X117284500Y-91172250D01*
X111472000Y-95672250D02*
X115972000Y-91172250D01*
X111472000Y-100828500D02*
X111472000Y-95672250D01*
X107534500Y-104766000D02*
X111472000Y-100828500D01*
X130302000Y-104902000D02*
X130302000Y-107442000D01*
X130302000Y-107442000D02*
X125222000Y-112522000D01*
X136784500Y-97453500D02*
X130302000Y-103936000D01*
X136784500Y-94828500D02*
X136784500Y-97453500D01*
X134253250Y-92297250D02*
X136784500Y-94828500D01*
X134253250Y-87609750D02*
X134253250Y-92297250D01*
X132659500Y-86016000D02*
X134253250Y-87609750D01*
X130302000Y-103936000D02*
X130302000Y-104902000D01*
X117284500Y-72141000D02*
X110065750Y-72141000D01*
X68665000Y-130641000D02*
X62484000Y-124460000D01*
X82503250Y-130641000D02*
X68665000Y-130641000D01*
X84003250Y-129141000D02*
X82503250Y-130641000D01*
X84003250Y-108984750D02*
X84003250Y-129141000D01*
X92440750Y-100547250D02*
X84003250Y-108984750D01*
X92440750Y-95672250D02*
X92440750Y-100547250D01*
X94315750Y-93797250D02*
X92440750Y-95672250D01*
X94315750Y-87891000D02*
X94315750Y-93797250D01*
X110065750Y-72141000D02*
X94315750Y-87891000D01*
X68909500Y-83391000D02*
X68909500Y-82172250D01*
X90097000Y-72141000D02*
X98253250Y-72141000D01*
X82034500Y-80203500D02*
X90097000Y-72141000D01*
X70878250Y-80203500D02*
X82034500Y-80203500D01*
X68909500Y-82172250D02*
X70878250Y-80203500D01*
X59944000Y-124460000D02*
X59944000Y-123950250D01*
X59944000Y-123950250D02*
X61222000Y-122672250D01*
X61222000Y-122672250D02*
X61222000Y-108047250D01*
X61222000Y-108047250D02*
X68909500Y-100359750D01*
X68909500Y-100359750D02*
X68909500Y-83391000D01*
X68909500Y-83391000D02*
X68909500Y-83297250D01*
X187059500Y-93712250D02*
X187059500Y-74681000D01*
X168028250Y-93712250D02*
X168028250Y-74681000D01*
X110934500Y-93712250D02*
X110934500Y-74681000D01*
X53840750Y-93712250D02*
X53840750Y-74681000D01*
X129965750Y-93712250D02*
X129965750Y-74681000D01*
X91903250Y-126678500D02*
X91903250Y-118649750D01*
X90190750Y-128391000D02*
X91903250Y-126678500D01*
X122682000Y-112522000D02*
X122682000Y-113257250D01*
X122682000Y-113257250D02*
X128074500Y-118649750D01*
X128074500Y-118649750D02*
X129965750Y-118649750D01*
X117602000Y-112522000D02*
X117062250Y-112522000D01*
X117062250Y-112522000D02*
X110934500Y-118649750D01*
X122682000Y-112522000D02*
X122682000Y-109982000D01*
X122682000Y-109982000D02*
X127762000Y-104902000D01*
X127762000Y-104902000D02*
X127762000Y-100851000D01*
X129965750Y-98647250D02*
X129965750Y-93712250D01*
X127762000Y-100851000D02*
X129965750Y-98647250D01*
X54864000Y-124460000D02*
X54864000Y-113374000D01*
X60190750Y-80766000D02*
X60190750Y-72141000D01*
X62722000Y-83297250D02*
X60190750Y-80766000D01*
X62722000Y-92016000D02*
X62722000Y-83297250D01*
X60940750Y-93797250D02*
X62722000Y-92016000D01*
X60940750Y-97828500D02*
X60940750Y-93797250D01*
X56159500Y-102609750D02*
X60940750Y-97828500D01*
X56159500Y-112078500D02*
X56159500Y-102609750D01*
X54864000Y-113374000D02*
X56159500Y-112078500D01*
X79222000Y-72141000D02*
X71534500Y-72141000D01*
X58690750Y-123173250D02*
X57404000Y-124460000D01*
X58690750Y-106266000D02*
X58690750Y-123173250D01*
X66659500Y-98297250D02*
X58690750Y-106266000D01*
X66659500Y-77016000D02*
X66659500Y-98297250D01*
X71534500Y-72141000D02*
X66659500Y-77016000D01*
X62484000Y-116340500D02*
X62484000Y-109220000D01*
X70409500Y-124266000D02*
X62484000Y-116340500D01*
X107347000Y-109172250D02*
X117847000Y-98672250D01*
X117847000Y-98672250D02*
X117847000Y-94453500D01*
X117847000Y-94453500D02*
X125159500Y-87141000D01*
X125159500Y-87141000D02*
X125159500Y-75609750D01*
X125159500Y-75609750D02*
X128628250Y-72141000D01*
X136315750Y-72141000D02*
X128628250Y-72141000D01*
X148082000Y-104902000D02*
X148082000Y-98813500D01*
X146065750Y-96797250D02*
X146065750Y-91172250D01*
X148082000Y-98813500D02*
X146065750Y-96797250D01*
X132842000Y-112522000D02*
X132842000Y-111708500D01*
X132842000Y-111708500D02*
X136690750Y-107859750D01*
X136690750Y-107859750D02*
X136690750Y-103172250D01*
X136690750Y-103172250D02*
X138940750Y-100922250D01*
X138940750Y-100922250D02*
X140815750Y-100922250D01*
X140815750Y-100922250D02*
X144472000Y-97266000D01*
X144472000Y-97266000D02*
X144472000Y-90141000D01*
X144472000Y-90141000D02*
X145222000Y-89391000D01*
X145222000Y-89391000D02*
X153565750Y-89391000D01*
X153565750Y-89391000D02*
X155347000Y-91172250D01*
X174378250Y-108797250D02*
X174378250Y-91172250D01*
X194440750Y-108891000D02*
X194440750Y-99703500D01*
X194440750Y-99703500D02*
X193878250Y-99141000D01*
X193878250Y-99141000D02*
X193878250Y-91641000D01*
X193878250Y-91641000D02*
X193409500Y-91172250D01*
X212534500Y-101016000D02*
X212440750Y-100922250D01*
X212440750Y-100922250D02*
X212440750Y-91172250D01*
X231378250Y-107203500D02*
X231472000Y-107109750D01*
X231472000Y-107109750D02*
X231472000Y-91172250D01*
X140462000Y-112522000D02*
X140462000Y-128463500D01*
X98253250Y-127828500D02*
X98253250Y-116109750D01*
X98909500Y-128484750D02*
X98253250Y-127828500D01*
X140462000Y-128463500D02*
X140440750Y-128484750D01*
X143002000Y-112522000D02*
X143002000Y-125642250D01*
X117284500Y-118266000D02*
X117284500Y-116109750D01*
X117753250Y-118734750D02*
X117284500Y-118266000D01*
X117753250Y-125672250D02*
X117753250Y-118734750D01*
X143002000Y-125642250D02*
X142972000Y-125672250D01*
X71399500Y-86859750D02*
X71399500Y-93088500D01*
X69847000Y-106937000D02*
X67564000Y-109220000D01*
X69847000Y-94641000D02*
X69847000Y-106937000D01*
X71399500Y-93088500D02*
X69847000Y-94641000D01*
X70104000Y-109220000D02*
X70104000Y-108446500D01*
X70104000Y-108446500D02*
X79690750Y-98859750D01*
X79690750Y-98859750D02*
X84003250Y-98859750D01*
X84003250Y-98859750D02*
X87659500Y-95203500D01*
X87659500Y-95203500D02*
X87659500Y-91664500D01*
X87659500Y-91664500D02*
X92456000Y-86868000D01*
X71909500Y-128766000D02*
X71909500Y-124078500D01*
X73034500Y-129891000D02*
X71909500Y-128766000D01*
X65024000Y-117193000D02*
X65024000Y-109220000D01*
X71909500Y-124078500D02*
X65024000Y-117193000D01*
X132842000Y-104902000D02*
X132842000Y-103177250D01*
X144284500Y-72141000D02*
X155347000Y-72141000D01*
X141659500Y-74766000D02*
X144284500Y-72141000D01*
X141659500Y-96141000D02*
X141659500Y-74766000D01*
X139597000Y-98203500D02*
X141659500Y-96141000D01*
X137815750Y-98203500D02*
X139597000Y-98203500D01*
X132842000Y-103177250D02*
X137815750Y-98203500D01*
X135382000Y-104902000D02*
X135382000Y-102793500D01*
X165378250Y-72141000D02*
X174378250Y-72141000D01*
X157690750Y-79828500D02*
X165378250Y-72141000D01*
X146159500Y-79828500D02*
X157690750Y-79828500D01*
X143253250Y-82734750D02*
X146159500Y-79828500D01*
X143253250Y-96703500D02*
X143253250Y-82734750D01*
X140347000Y-99609750D02*
X143253250Y-96703500D01*
X138565750Y-99609750D02*
X140347000Y-99609750D01*
X135382000Y-102793500D02*
X138565750Y-99609750D01*
X193315750Y-87516000D02*
X193409500Y-87422250D01*
X193409500Y-87422250D02*
X193409500Y-72141000D01*
X204847000Y-72141000D02*
X212440750Y-72141000D01*
X202784500Y-74203500D02*
X204847000Y-72141000D01*
X202784500Y-95016000D02*
X202784500Y-74203500D01*
X198472000Y-99328500D02*
X202784500Y-95016000D01*
M02*
