M48
INCH,TZ
T1C0.016
T2C0.031
T3C0.039
T4C0.047
T5C0.059
%
G90
G05
T1
X2.772Y-4.8924
X2.8754Y-5.1138
X3.5508Y-5.0548
X3.7317Y-4.0213
X3.8941Y-5.0585
X4.2263Y-4.2981
X4.2336Y-4.1246
X4.636Y-4.9477
X5.2228Y-3.3865
X5.5292Y-5.0585
X5.6288Y-4.9477
X5.7506Y-3.5895
X6.8653Y-4.2834
X7.6109Y-3.4455
X7.6551Y-4.287
X7.8139Y-3.9106
X8.3675Y-3.977
X9.1094Y-4.2206
T2
X4.63Y-4.13
X4.63Y-4.43
X4.73Y-4.13
X4.73Y-4.43
X4.83Y-4.13
X4.83Y-4.43
X4.93Y-4.13
X4.93Y-4.43
X5.03Y-4.13
X5.03Y-4.43
X5.13Y-4.13
X5.13Y-4.43
X5.23Y-4.13
X5.23Y-4.43
X5.33Y-4.13
X5.33Y-4.43
X5.43Y-4.13
X5.43Y-4.43
X5.53Y-4.13
X5.53Y-4.43
X5.63Y-4.13
X5.63Y-4.43
X5.73Y-4.13
X5.73Y-4.43
X5.83Y-4.13
X5.83Y-4.43
X5.93Y-4.13
X5.93Y-4.43
T3
X1.76Y-4.9
X1.86Y-4.9
X1.96Y-4.3
X1.96Y-4.9
X2.06Y-4.3
X2.06Y-4.9
X2.16Y-4.3
X2.16Y-4.9
X2.26Y-4.3
X2.26Y-4.9
X2.36Y-4.3
X2.36Y-4.9
X2.46Y-4.3
X2.46Y-4.9
X2.56Y-4.3
X2.56Y-4.9
X2.66Y-4.3
X2.76Y-4.3
X7.5223Y-4.8887
X7.5223Y-4.9887
X7.5223Y-5.0887
X7.6847Y-4.8887
X7.6847Y-4.9887
X7.6847Y-5.0887
X7.8471Y-4.8887
X7.8471Y-4.9887
X7.8471Y-5.0887
T4
X2.211Y-3.4197
X2.811Y-3.4197
X3.04Y-3.42
X3.64Y-3.42
T5
X2.1197Y-2.9402
X2.1197Y-3.6895
X2.3697Y-2.8402
X2.3697Y-3.5895
X2.869Y-2.9402
X2.869Y-3.6895
X3.119Y-2.8402
X3.119Y-3.5895
X3.6182Y-2.9402
X3.6182Y-3.6895
X3.6182Y-4.6712
X3.8682Y-2.8402
X3.8682Y-3.5895
X3.8682Y-4.5713
X4.3675Y-2.9402
X4.3675Y-3.6895
X4.3675Y-4.6712
X4.6175Y-2.8402
X4.6175Y-3.5895
X4.6175Y-4.5713
X5.1168Y-2.9402
X5.1168Y-3.6895
X5.1168Y-4.6712
X5.3668Y-2.8402
X5.3668Y-3.5895
X5.3668Y-4.5713
X5.866Y-2.9402
X5.866Y-3.6895
X5.866Y-4.6712
X6.116Y-2.8402
X6.116Y-3.5895
X6.116Y-4.5713
X6.6153Y-2.9402
X6.6153Y-3.6895
X6.6153Y-4.6712
X6.8653Y-2.8402
X6.8653Y-3.5895
X6.8653Y-4.5713
X7.3645Y-2.9402
X7.3645Y-3.6895
X7.6145Y-2.8402
X7.6145Y-3.5895
X8.1138Y-2.9402
X8.1138Y-3.6895
X8.3638Y-2.8402
X8.3638Y-3.5895
X8.8631Y-3.6895
X8.8668Y-2.9402
X9.1131Y-3.5895
X9.1168Y-2.8402
T0
M30
