M48
INCH,TZ
T1C0.067
T2C0.118
T3C0.157
%
G90
G05
T1
X2.0697Y-3.0402
X2.0697Y-3.7895
X2.4697Y-3.0402
X2.4697Y-3.7895
X2.819Y-3.0402
X2.819Y-3.7895
X3.219Y-3.0402
X3.219Y-3.7895
X3.5682Y-3.0402
X3.5682Y-3.7895
X3.5682Y-4.7713
X3.9682Y-3.0402
X3.9682Y-3.7895
X3.9682Y-4.7713
X4.3175Y-3.0402
X4.3175Y-3.7895
X4.3175Y-4.7713
X4.7175Y-3.0402
X4.7175Y-3.7895
X4.7175Y-4.7713
X5.0668Y-3.0402
X5.0668Y-3.7895
X5.0668Y-4.7713
X5.4668Y-3.0402
X5.4668Y-3.7895
X5.4668Y-4.7713
X5.816Y-3.0402
X5.816Y-3.7895
X5.816Y-4.7713
X6.216Y-3.0402
X6.216Y-3.7895
X6.216Y-4.7713
X6.5653Y-3.0402
X6.5653Y-3.7895
X6.5653Y-4.7713
X6.9653Y-3.0402
X6.9653Y-3.7895
X6.9653Y-4.7713
X7.3145Y-3.0402
X7.3145Y-3.7895
X7.7145Y-3.0402
X7.7145Y-3.7895
X8.0638Y-3.0402
X8.0638Y-3.7895
X8.4638Y-3.0402
X8.4638Y-3.7895
X8.8131Y-3.7895
X8.8168Y-3.0402
X9.2131Y-3.7895
X9.2168Y-3.0402
T2
X1.81Y-2.55
X1.81Y-5.27
X2.8176Y-4.6019
X4.1451Y-3.6891
X5.64Y-2.55
X5.64Y-5.27
X7.1384Y-3.6891
X9.47Y-2.55
X9.47Y-5.27
T3
X2.2697Y-3.0402
X2.2697Y-3.7895
X3.019Y-3.0402
X3.019Y-3.7895
X3.7682Y-3.0402
X3.7682Y-3.7895
X3.7682Y-4.7713
X4.5175Y-3.0402
X4.5175Y-3.7895
X4.5175Y-4.7713
X5.2668Y-3.0402
X5.2668Y-3.7895
X5.2668Y-4.7713
X6.016Y-3.0402
X6.016Y-3.7895
X6.016Y-4.7713
X6.7653Y-3.0402
X6.7653Y-3.7895
X6.7653Y-4.7713
X7.5145Y-3.0402
X7.5145Y-3.7895
X8.2638Y-3.0402
X8.2638Y-3.7895
X9.0131Y-3.7895
X9.0168Y-3.0402
T0
M30
